<?xml version="1.0" encoding="utf-8"?>
<!-- Generator: Adobe Illustrator 18.1.0, SVG Export Plug-In . SVG Version: 6.00 Build 0)  -->
<!DOCTYPE svg PUBLIC "-//W3C//DTD SVG 1.1//EN" "http://www.w3.org/Graphics/SVG/1.1/DTD/svg11.dtd">
<svg version="1.1" id="Layer_1" xmlns="http://www.w3.org/2000/svg" xmlns:xlink="http://www.w3.org/1999/xlink" x="0px" y="0px"
	 viewBox="0 0 612 792" enable-background="new 0 0 612 792" xml:space="preserve">
<g>
	<g>
		<path fill="#FFFFFF" d="M261.4,393.6c0,0,17.3-1.3,17.3-21.6s-14.2-30.3-32.2-30.3h-33.1h-1h-25.1v113.7h25.1h1h33.1
			c0,0,36.1,1.1,36.1-33.6C282.7,421.9,284.3,393.6,261.4,393.6z M213.5,362h28.8h4.3c0,0,8,0,8,11.9s-4.7,13.5-10.1,13.5h-31V362
			L213.5,362z M245.1,435.2h-31.6v-30.4h33.1c0,0,12-0.1,12,15.6C258.6,433.6,249.8,435.1,245.1,435.2z"/>
		<g>
			<path fill="#FFFFFF" d="M330.9,370.6c-43.7,0-43.7,43.7-43.7,43.7s-3,43.5,43.7,43.5c0,0,38.9,2.2,38.9-30.2h-20
				c0,0,0.6,12.2-18.2,12.2c0,0-20,1.3-20-19.8h58.9C370.5,420,376.9,370.6,330.9,370.6z M348.6,404.9h-37.4c0,0,2.4-17.5,20-17.5
				S348.6,404.9,348.6,404.9z"/>
			<rect x="306.4" y="348.4" fill="#FFFFFF" width="46.9" height="14"/>
		</g>
	</g>
</g>
<g opacity="0.6">
	<g>
		
			<linearGradient id="SVGID_1_" gradientUnits="userSpaceOnUse" x1="301.8455" y1="601.8193" x2="406.9382" y2="419.7935" gradientTransform="matrix(0.6375 0 0 -0.6375 0 722.4)">
			<stop  offset="0.2247" style="stop-color:#FFFFFF;stop-opacity:0.3"/>
			<stop  offset="0.4011" style="stop-color:#FFFFFF;stop-opacity:0"/>
		</linearGradient>
		<path fill="url(#SVGID_1_)" d="M261.4,393.6c0,0,17.3-1.3,17.3-21.6s-14.2-30.3-32.2-30.3h-33.1h-1h-25.1v113.7h25.1h1h33.1
			c0,0,36.1,1.1,36.1-33.6C282.7,421.9,284.3,393.6,261.4,393.6z M213.5,362h28.8h4.3c0,0,8,0,8,11.9s-4.7,13.5-10.1,13.5h-31V362
			L213.5,362z M245.1,435.2h-31.6v-30.4h33.1c0,0,12-0.1,12,15.6C258.6,433.6,249.8,435.1,245.1,435.2z"/>
		<g>
			
				<linearGradient id="SVGID_2_" gradientUnits="userSpaceOnUse" x1="482.2316" y1="542.8863" x2="552.89" y2="420.5026" gradientTransform="matrix(0.6375 0 0 -0.6375 0 722.4)">
				<stop  offset="0.2247" style="stop-color:#FFFFFF;stop-opacity:0.3"/>
				<stop  offset="0.4011" style="stop-color:#FFFFFF;stop-opacity:0"/>
			</linearGradient>
			<path fill="url(#SVGID_2_)" d="M330.9,370.6c-43.7,0-43.7,43.7-43.7,43.7s-3,43.5,43.7,43.5c0,0,38.9,2.2,38.9-30.2h-20
				c0,0,0.6,12.2-18.2,12.2c0,0-20,1.3-20-19.8h58.9C370.5,420,376.9,370.6,330.9,370.6z M348.6,404.9h-37.4c0,0,2.4-17.5,20-17.5
				S348.6,404.9,348.6,404.9z"/>
			
				<linearGradient id="SVGID_3_" gradientUnits="userSpaceOnUse" x1="503.461" y1="599.8497" x2="531.3625" y2="551.5229" gradientTransform="matrix(0.6375 0 0 -0.6375 0 722.4)">
				<stop  offset="0.2247" style="stop-color:#FFFFFF;stop-opacity:0.3"/>
				<stop  offset="0.4011" style="stop-color:#FFFFFF;stop-opacity:0"/>
			</linearGradient>
			<rect x="306.4" y="348.4" fill="url(#SVGID_3_)" width="46.9" height="14"/>
		</g>
	</g>
</g>
</svg>
