<?xml version="1.0" encoding="utf-8"?>
<!-- Generator: Adobe Illustrator 18.1.0, SVG Export Plug-In . SVG Version: 6.00 Build 0)  -->
<!DOCTYPE svg PUBLIC "-//W3C//DTD SVG 1.1//EN" "http://www.w3.org/Graphics/SVG/1.1/DTD/svg11.dtd">
<svg version="1.1" id="Layer_1" xmlns="http://www.w3.org/2000/svg" xmlns:xlink="http://www.w3.org/1999/xlink" x="0px" y="0px"
	 viewBox="0 0 960 560" enable-background="new 0 0 960 560" xml:space="preserve">
<path d="M634,523.2H241.5c-22.6,0-41-18.3-41-41V48.7H675v433.5C675,504.8,656.7,523.2,634,523.2z"/>
<g>
	<g>
		<path fill="#FFFFFF" d="M410,276.3c0,0,27.2-2,27.2-33.9c0-31.9-22.3-47.5-50.5-47.5h-51.9h-1.5H294v178.4h39.4h1.5h51.9
			c0,0,56.7,1.8,56.7-52.7C443.5,320.6,445.9,276.3,410,276.3z M334.9,226.6h45.2h6.7c0,0,12.6,0,12.6,18.6s-7.4,21.2-15.8,21.2
			h-48.7V226.6z M384.4,341.5h-49.5v-47.7h51.9c0,0,18.8-0.2,18.8,24.5C405.6,339,391.8,341.3,384.4,341.5z"/>
		<g>
			<path fill="#FFFFFF" d="M519,240.2c-68.6,0-68.5,68.5-68.5,68.5S445.8,377,519,377c0,0,61,3.5,61-47.4h-31.4
				c0,0,1,19.2-28.6,19.2c0,0-31.4,2.1-31.4-31h92.4C581.1,317.7,591.2,240.2,519,240.2z M546.9,293.9h-58.6c0,0,3.8-27.5,31.4-27.5
				C547.3,266.4,546.9,293.9,546.9,293.9z"/>
			<rect x="480.7" y="205.4" fill="#FFFFFF" width="73.6" height="22"/>
		</g>
	</g>
</g>
<g opacity="0.6">
	<g>
		<linearGradient id="SVGID_1_" gradientUnits="userSpaceOnUse" x1="301.9882" y1="190.2255" x2="407.1028" y2="372.2893">
			<stop  offset="0.2247" style="stop-color:#FFFFFF;stop-opacity:0.3"/>
			<stop  offset="0.4011" style="stop-color:#FFFFFF;stop-opacity:0"/>
		</linearGradient>
		<path fill="url(#SVGID_1_)" d="M410,276.3c0,0,27.2-2,27.2-33.9c0-31.9-22.3-47.5-50.5-47.5h-51.9h-1.5H294v178.4h39.4h1.5h51.9
			c0,0,56.7,1.8,56.7-52.7C443.5,320.6,445.9,276.3,410,276.3z M334.9,226.6h45.2h6.7c0,0,12.6,0,12.6,18.6s-7.4,21.2-15.8,21.2
			h-48.7V226.6z M384.4,341.5h-49.5v-47.7h51.9c0,0,18.8-0.2,18.8,24.5C405.6,339,391.8,341.3,384.4,341.5z"/>
		<g>
			<linearGradient id="SVGID_2_" gradientUnits="userSpaceOnUse" x1="482.2123" y1="249.1767" x2="552.854" y2="371.5317">
				<stop  offset="0.2247" style="stop-color:#FFFFFF;stop-opacity:0.3"/>
				<stop  offset="0.4011" style="stop-color:#FFFFFF;stop-opacity:0"/>
			</linearGradient>
			<path fill="url(#SVGID_2_)" d="M519,240.2c-68.6,0-68.5,68.5-68.5,68.5S445.8,377,519,377c0,0,61,3.5,61-47.4h-31.4
				c0,0,1,19.2-28.6,19.2c0,0-31.4,2.1-31.4-31h92.4C581.1,317.7,591.2,240.2,519,240.2z M546.9,293.9h-58.6c0,0,3.8-27.5,31.4-27.5
				C547.3,266.4,546.9,293.9,546.9,293.9z"/>
			<linearGradient id="SVGID_3_" gradientUnits="userSpaceOnUse" x1="503.4912" y1="192.1763" x2="531.4037" y2="240.522">
				<stop  offset="0.2247" style="stop-color:#FFFFFF;stop-opacity:0.3"/>
				<stop  offset="0.4011" style="stop-color:#FFFFFF;stop-opacity:0"/>
			</linearGradient>
			<rect x="480.7" y="205.4" fill="url(#SVGID_3_)" width="73.6" height="22"/>
		</g>
	</g>
</g>
<g>
</g>
<g>
</g>
<g>
</g>
<g>
</g>
<g>
</g>
<g>
</g>
<g>
</g>
<g>
</g>
<g>
</g>
<g>
</g>
<g>
</g>
<g>
</g>
<g>
</g>
<g>
</g>
<g>
</g>
</svg>
