<?xml version="1.0" encoding="utf-8"?>
<!-- Generator: Adobe Illustrator 18.1.0, SVG Export Plug-In . SVG Version: 6.00 Build 0)  -->
<!DOCTYPE svg PUBLIC "-//W3C//DTD SVG 1.1//EN" "http://www.w3.org/Graphics/SVG/1.1/DTD/svg11.dtd">
<svg version="1.1" id="Layer_1" xmlns="http://www.w3.org/2000/svg" xmlns:xlink="http://www.w3.org/1999/xlink" x="0px" y="0px"
	 viewBox="85 317 665 656" enable-background="new 85 317 665 656" xml:space="preserve">
<path d="M478.4,640.3c-1.2-17.5-13.5-27-29.8-23.4c-5.2,0.8-9.5,3.6-14.3,6c-1.2,0.8-2,2-2.8,3.2c1.6,0.8,2.8,0.4,3.6-0.4
	c7.5-6,16.3-8.7,24.6-4c8.7,5.2,12.7,13.9,12.3,24.2c-0.4,16.3-9.1,27.4-23.8,33.7c-16.7,7.1-34.1,7.1-52,5.2
	c-23-2.8-43.3-12.3-63.5-22.2c-2-1.2-4.8-0.8-6.3-0.8c-2.8-2.4-4.8-5.2-7.5-6.3c-20.2-9.1-40.9-17.9-61.5-26.6
	c-5.2-2-7.5-4.8-7.9-10.3c-1.6-14.7-3.6-29.4-6-43.7c-1.2-6.7-0.4-11.9,4.4-17.1c12.7-13.9,23.8-29.4,30.6-47.2
	c5.2-13.1,6.7-26.6,1.2-40.1c-2-6-5.6-11.9-11.9-12.3c-5.6-0.4-11.9,0-17.1,4.8c-7.5,6.7-10.7,15.5-14.3,24.2
	c-2.4,5.6-6.3,10.7-1.6,17.1c-1.2-0.8-2-1.6-3.6-2.8c-6,20.6-3.6,40.9-0.8,62.3c-5.6,1.6-11.5,3.6-17.9,5.2
	c-15.1,3.6-30.2,4.8-38.1,1.2c-6.7-3.2-13.9-7.1-18.7-12.7c-14.3-15.5-12.3-42.5,3.6-55.2c11.5-9.1,25-4.8,29,9.5
	c0.4,1.2,1.2,2.8,2,4.4c0.4,0,1.2-0.4,1.6,0.4c0-0.4,0.4-1.2,0.4-1.6c0.4-7.1-2.4-13.5-8.7-17.1c-8.3-5.2-16.7-4.8-25,0.4
	c-15.9,9.9-24.6,31.3-20.2,49.6c4,17.9,18.7,30.6,36.9,31.7c16.7,1.2,32.9-2.4,49.2-6.7c4.8-1.6,7.5-0.8,8.3,4.8
	c2.4,12.3,4.8,24.2,7.1,36.1c0.4,2.4,0.8,5.2,1.2,8.3c-2,0.4-3.6,0.4-5.2,0.8c-7.9,1.6-15.1,5.2-20.2,11.9
	c-3.6,4.8-5.6,10.3-2.4,16.3c2.8,6,8.3,7.1,14.3,7.1c10.3-0.4,16.3-6.7,19.8-15.5c3.6-8.3,3.6-9.1,12.3-5.6
	c15.5,6,30.6,12.7,45.2,19.8c17.1,7.9,33.7,17.9,51.2,25.4c1.6,0.8,3.2,1.2,4.8,2c6,2.4,12.3,4,18.7,5.6c3.6,0.8,7.5,1.6,11.1,2.4
	c11.5,1.6,23,2,34.5,2c6,0,11.9-1.6,17.5-3.2C466.1,683.5,480.3,663.3,478.4,640.3z M240.3,637.5c0,0.4-0.4,1.2-0.8,1.6
	c-1.6,4-4.4,7.9-7.5,11.1c-0.8,0.8-1.2,1.2-2,1.6c-2.8,1.6-6,1.2-9.1-0.4c-0.4-0.4-1.2-0.8-1.6-1.2l-0.4-0.4
	c-0.4-0.4-0.8-0.8-0.8-1.2c-1.6-2.8-0.4-5.6,0.8-8.7c0.8-1.6,1.2-3.6,2-5.6c2-0.8,4-1.6,6-2.8c2-0.8,4-2.4,6-2.4
	c5.6-0.4,8.7,0,8.7,4C241.5,634.3,241.1,635.5,240.3,637.5z M241.1,553c-1.2-4.4-2.4-6.7-2.8-9.1c-2.8-23-1.6-45.6,7.9-67.1
	c3.6-7.5,7.9-12.3,13.5-12.7c0.4,0,0.4,0,0.8,0c0,0,0.4,0,0.8,0h0.4c6.3,0.8,11.5,7.1,12.7,16.3c2,16.3-4,30.6-11.1,44.8
	c-0.8,2-4.4,4.4-0.8,7.1c0,0.4-0.8,2-1.6,2.8l0,0c0,0,0,0-0.4,0s-0.4,0-0.8-0.4h-0.4h-0.4c-0.4,0-0.4-0.4-0.8-0.4
	C253.4,539.5,247.8,545.4,241.1,553C241.5,552.6,241.1,553,241.1,553z"/>
<path d="M537.1,545c-0.4,1.2-0.4,2.4-0.8,3.2c-1.6,8.7-3.2,16.3-4,24.2c-0.8,5.6-5.6,12.3-9.5,12.3c-6-0.4-7.1-6-9.1-9.9
	c-0.4-0.8-0.4-1.6-0.4-2.4c-1.2-15.9-2-32.1-3.6-48.4c-0.8-7.9-1.6-15.9-3.2-23.8c-1.2-6-4.8-11.1-11.9-11.1
	c-6.7,0-9.9,4.8-11.5,9.9c-2.8,8.7-4.8,17.5-6.7,26.2c-1.6,6.3-2.4,12.3-3.2,18.7h-2.4c-0.8-9.9-1.6-19.8-2.4-30.2
	c0.4-4,0.8-7.9,1.2-12.3c0.8-5.6-2-6.7-6.7-6.3c-8.3,0.4-10.3,1.6-9.5,7.1c1.6,14.7,3.2,29,5.2,43.7c2,13.5-3.2,24.2-12.7,32.9
	c-9.1,8.7-17.9,6.7-24.6-3.6c-2.4-3.6-2.8-6,0.8-9.5c13.5-14.3,25-30.2,28.6-50.4c1.2-7.5,0.8-15.1-6.3-19.4
	c-7.5-4.4-14.7-1.6-21,2.8c-1.2,0.8-2.4,2-3.6,3.2c-7.9,7.9-12.7,17.9-15.5,28.6c-0.4,1.6,0.8,3.6,1.2,4.8c-0.8,1.6-2.8,2.8-1.6,4.4
	c-2.4,12.3-1.6,24.6,4.8,35.7c2.4,4.4,2.8,8.7,1.2,13.1c-2,6-2.4,13.5-10.3,13.9c-7.9,0.8-10.3-6.3-12.7-12.3c-5.2-13.1-6-27-6-40.9
	c0-2.4-0.4-4.8-0.8-7.1c-3.2,0.4-6,0.8-9.1,1.2c0.8,9.1,1.6,18.7,2.4,27.8c0.4,3.2,0.8,6.7,2,9.5c2.4,6.7,4.4,13.9,8.3,19.8
	c7.1,10.7,19,9.9,25-1.6c2.4-4.4,3.6-9.1,5.6-14.3c8.7,6.7,18.3,8.7,28.2,4c9.9-4.8,13.9-14.7,19-25c0.4,4,0.8,6.3,1.2,8.3
	c0,2,0,4.4,0.8,6.3s2.4,4.4,4.4,5.2c6.3,2.4,9.9-0.8,8.7-8.3c-2-15.1-0.4-29.8,2.8-44.4c2.4-10.7,6-21.4,9.1-31.7
	c0.4-1.6,2.8-2.4,4.4-3.6c0.8,1.6,2.4,3.2,2.4,4.8c0.4,8.3,0.8,17.1,0.4,25.8c-0.8,15.1,1.2,29.8,6.7,44c2.4,6.3,6.7,12.3,11.1,17.1
	c5.2,5.6,12.3,4.4,17.1-1.6c4.4-4.8,7.9-20.6,7.9-31.7l0,0C538.3,550.2,537.9,547.4,537.1,545z M413.7,566.4c0.8-4,2-6,1.6-7.5
	c-1.2-15.9-0.4-31.3,6-46c1.2-3.6,3.6-7.1,6.3-9.9c3.2-3.6,7.1-2.8,8.7,2c1.6,3.6,1.6,7.5,2.4,11.9c1.6-0.8,2.8-1.2,6-2.4
	c-0.8,4-1.2,6.3-2,10.7c-2-2.8-2.8-3.6-4-5.2c-0.4,1.6-1.2,2.4-1.2,3.6c-2.8,13.9-7.5,27-16.7,38.1
	C419.2,563.7,416.1,564.9,413.7,566.4z"/>
<path d="M357.3,521.2c11.5-3.6,20.6-8.7,27-18.7c0.8,0,1.2,0.4,2,0.4c0.4,2.8,1.2,5.6,0.4,7.9c-2.4,8.3-4.8,17.1-7.5,25.8
	c-1.6,0-4,0-6.7,0c0,0.4,0,1.6,0.4,2.8c-0.4,0-0.8,0-1.2,0c0-4,0-7.9,0-12.3c-5.2,2.4-9.5,4.4-13.9,6.7c-1.6,0.8-2.4,3.2-2.8,5.2
	c-1.6,13.5-2.8,27-4.8,40.5c-0.8,5.6-3.2,11.1-6,16.3c-4.4,8.3-11.9,9.5-19,3.6c-4-3.2,2-5.6,9.1-4.4c4.4,0.8,10.3-3.6,11.5-11.9
	c2.8-15.5,4-31,5.6-46.4c0-1.6-1.6-3.2-2.4-4.4c-6.3-9.5-7.5-19.4-3.6-29.8c0.8-2,3.2-3.2,4.8-4.8c1.6,1.6,3.6,3.2,4.4,5.2
	C355.7,508.9,356.1,514.9,357.3,521.2z"/>
<path d="M603.8,560.9c-5.2,8.3-14.3,4.4-22.6-10.3c-0.8,1.6-2.4,2.8-2.4,4c-1.6,9.1-5.6,15.9-14.7,18.3c-7.5,2-16.7-2.8-21.8-11.1
	c-11.1-18.7-9.5-38.1-0.4-56.7c2-4,4.4-7.9,7.9-10.7c4.4-3.6,9.5-6.7,14.3-9.1c3.6-2,7.5-3.2,11.9-4c4-0.4,7.9,0,11.9,0.8
	c3.2,0.8,4.4,2.8,1.6,5.6c-2.8,2.8-10.7,4-13.9,1.6c-5.2-3.6-9.9-2.8-13.5,0.8s-6.7,7.5-8.3,12.3c-7.9,19.4-5.6,38.9,0.8,57.9
	c2.4,6.7,12.7,7.9,15.9,2s4.4-12.7,6.7-19c0.8-2.4,2-5.2,2.4-7.5c0.4-1.6-1.2-3.2-1.2-4.8c-0.8-9.9-1.6-19.8-2.4-30.2
	c-0.4-7.9,5.6-5.6,9.5-6.3c4.8-0.8,5.6,1.6,6,6c0.8,13.9,2.4,27.8,4,41.7c0.8,5.6,2.8,11.1,4.4,16.7
	C599.4,560.1,601.8,560.5,603.8,560.9z"/>
<path d="M300.6,537.5c-0.8,6-1.6,13.1-2.4,20.6c0,0.8-1.2,1.2-2,2c-3.6,2-4,4-0.4,6.7c1.6,1.2,2.4,3.6,2.8,5.2
	c2,6.7,2.8,13.9,5.6,20.2c1.6,3.2,6,6.7,9.1,6.7c2.8,0,6.7-4,8.3-7.1c5.2-9.9,6-21,5.2-32.1c-0.4-7.1-1.2-14.3-1.6-21
	c2.8-1.6,7.5-4.8,7.5-5.6c-2-0.8-4.4-2-6.3-2.8c0-0.4,0-0.8,0-1.6c4-0.4,7.1,55.6,5.2,52.4c-1.2,3.6-2,6.3-3.2,9.5
	c-4,10.3-10.7,16.3-18.7,14.3c-5.2-1.2-10.7-4.4-14.7-7.9c-4-4-7.9-8.7-6.7-15.9c0.4-1.6-2.4-4-2.8-6c-2.4-20.6,2.8-39.3,19-53.2
	c8.7-7.9,23.8,2.8,19.4-0.8c-4.8-4-12.3-0.4-17.5,7.1C304.5,531.1,303,533.5,300.6,537.5z"/>
<path d="M480.3,468c-8.7,1.6-17.5,3.2-26.2,5.2c-12.7,2.8-25.4,5.6-38.1,8.3c-13.5,2.8-27,4.8-40.1,8.3c-13.9,3.6-27.8,4.4-41.7,3.2
	c-6.3-0.8-12.7-2.8-19-4.8c-1.6-0.4-2.8-2-4-2.8c0.4-0.4,0.4-0.8,0.8-1.2c2.8,1.2,5.6,2.4,8.3,3.6c11.1,4.8,22.6,4,33.7,2.8
	c15.1-1.6,30.6-4.4,45.6-7.5c22.2-4.4,44.4-9.9,66.7-14.7c3.2-0.8,6.7-1.6,9.9-2.4c1.2-0.4,2.8,0,4.4,0.4
	C480.3,466.8,480.3,467.2,480.3,468z"/>
<path d="M647,478c-9.1-8.7-19.8-14.7-31.3-18.7c-16.7-6-33.7-4-50.4-3.2c-4,0-8.3-0.8-12.3-0.4c-4.8,0.8-9.5,2.4-14.7,3.2
	c-6,1.2-11.9,1.6-18.7,1.2c0.8-0.4,1.2-1.6,2-1.6c23-2,46-5.2,69-6c18.3-0.8,35.3,5.6,49.6,17.5C642.6,472.4,644.6,475.6,647,478z"
	/>
<path d="M300.2,460.5c-2-7.9,0.8-14.3,6-19.8c9.1-9.9,27-10.3,35.7-1.2c4.8,4.8,6.7,10.7,4.8,17.1c-0.8,2.8-4,4.8-6.7,6.7
	c5.6-4,6.3-9.1,4.4-15.1c-2.4-7.1-9.1-12.3-16.7-12.7c-8.7-0.8-23,5.2-26.2,19C301,456.1,300.6,458.5,300.2,460.5z"/>
<path d="M311.7,608.1c15.5-8.3,17.5-23.4,17.9-38.5c0-7.9-2.4-15.9-3.6-23.8c-1.2-7.1-2.8-12.7-12.7-12.7c-3.2,0-7.9-5.6-9.1-9.5
	c-0.8-2.8,2.8-9.1,5.6-9.5c3.6-0.8,7.9,2.4,12.3,3.6c-0.4,1.2-0.8,2.4-1.2,3.6c-1.6,0-3.2-0.4-4.4,0c-2.4,1.6-4.4,3.6-6.3,5.2
	c2.4,1.2,5.2,3.6,7.1,3.2c10.3-2.4,20.6-6,32.1-7.1c-6.7,3.6-13.1,6.7-20.6,10.7c1.6,9.1,4.8,19,4,28.2c-0.8,13.1-3.6,26.6-7.5,39.3
	C324.4,604.5,316.5,605.7,311.7,608.1C311.3,607.7,311.7,608.1,311.7,608.1z"/>
<path d="M483.5,464.5c11.1-2,22.2-3.6,34.5-5.6C512.5,464.1,489.5,467.2,483.5,464.5z"/>
<path d="M308.5,482.3c-6.3-4.4-8.3-11.1-8.7-18.3C302.6,470,305.7,476.4,308.5,482.3z"/>
<path d="M241.5,552.6c6.7-7.5,11.9-13.1,17.1-18.7C253.4,539.9,248.2,545.4,241.5,552.6C241.5,553,241.5,552.6,241.5,552.6z"/>
<path d="M259.3,534.3c0.4,0.4,1.2,0.4,1.2,0.8C260.1,534.7,259.7,534.7,259.3,534.3z"/>
<path d="M263.7,525.2c-1.2,2-4.4,4.4-0.8,7.1c0.4,0-0.8,2-1.6,2.8h-0.4c0.8-0.8,1.6-2.4,1.6-2.8c-3.6-2.8,0-5.2,0.8-7.1
	c7.1-14.3,13.1-28.6,11.1-44.8c-1.2-9.1-6.3-15.5-12.7-16.3c-0.4,0-0.8,0-1.2,0c0.4,0,0.8,0,1.6,0c6.3,0.8,11.5,7.1,12.7,16.3
	C276.8,496.6,270.8,510.9,263.7,525.2z"/>
<path d="M218.8,639.9c-1.2,3.2-2.8,6-0.8,8.7C216.1,645.8,217.2,643,218.8,639.9z"/>
<path d="M226.8,631.5c-2,1.2-4,2-6,2.8C222.8,633.5,224.8,632.3,226.8,631.5z"/>
<path d="M306.5,734.7c-15.5,5.6-27.8,14.7-32.5,31.3c-6,22.6-0.8,42.9,14.3,60.7c2.4,2.8,4.8,6,7.5,8.7c6.3,6.7,15.1,8.3,23.4,10.7
	c17.1,4.8,30.2-3.2,41.3-15.5c9.1-10.3,13.9-23,16.3-36.5c0.4-2.8,1.6-5.2,2.8-8.3c-0.4-2.4-1.2-5.2-1.2-7.9
	c-0.4-4.4,0.4-9.1-0.4-13.5c-1.2-8.7,0.8-11.1,9.1-14.3c-2.8-3.6-6.7-1.2-9.9-1.6c-0.8,0-1.6,2.8-2.8,4.8c-11.1,1.2-23,2.4-34.9,3.6
	c0-0.4-0.4-0.8-0.4-1.6c7.1-2,14.3-3.6,21.4-5.6c2.4-0.8,5.2-1.6,7.5-2c6.7-0.4,7.5-4.4,6-9.9c-3.6-13.9-7.1-28.2-10.7-42.1
	c-0.8-3.6-1.6-7.1-2.4-11.9c4.4-0.8,9.1-2,13.9-2.8c1.2,0,3.6,2,4,3.2c1.2,8.3,1.6,16.7,2.8,25c1.2,6.7,3.2,13.5,4.4,20.2
	c0.8,4,1.6,8.3,2.4,13.5c5.2-1.2,10.3-2,15.1-3.6c5.6-2,7.1,1.6,8.3,6c1.2,5.6-3.6,4.4-6,5.2c-3.2,0.8-6.7,1.2-10.3,1.2
	c-4,0-6.7,0.8-6.3,4.8c-3.2,1.2-7.1,1.2-7.5,2.8c-1.2,4.4,2.4,3.2,4.8,2.8c0.8,0,2-0.4,3.6-1.2c1.6,19.4-2.8,36.9-11.5,54.4
	c-0.4-1.2-0.8-2.4-1.6-4.4c-1.2,2.4-2.8,4.4-2.4,5.2c2.8,3.6,0,5.6-1.6,7.9c-11.1,14.7-24.6,27-43.7,30.2
	c-6.3,1.2-12.7,2.4-19.4-2.4c-3.2-2.4-9.5-1.6-13.9-4.8c-17.1-11.5-25.8-27.8-28.6-47.6c-1.2-7.9-0.8-16.7,0.4-24.6
	c2.8-18.3,13.9-30.6,30.2-38.9c2.8-1.2,17.5-6,22.6-6.7c14.7-2.8,29.8-4.4,43.7,4c1.2,0.8,1.6,2.4,2,4.4c-15.9-7.1-31.7-8.3-48-4.4
	C312.9,732.7,308.1,733.9,306.5,734.7z"/>
<path d="M524,749c0.8-14.7-3.6-29-5.2-43.7c-0.8-5.6,1.2-6.7,9.5-7.1c4.8-0.4,7.5,0.8,6.7,6.3c-0.4,4.4-0.8,8.3-1.2,12.3
	c0.8,10.3,1.6,20.2,2.4,30.2c0.8,0,1.6,0,2.4,0c0.8-6.3,1.6-12.3,3.2-18.7c2-8.7,4-17.5,6.7-26.2c1.6-5.2,4.8-9.9,11.5-9.9
	c7.1,0,10.7,5.2,11.9,11.1c1.6,7.9,2.4,15.9,3.2,23.8c1.6,16.3,2.4,32.5,3.6,48.4c0,0.8,0,1.6,0.4,2.4c2,4,3.2,9.5,9.1,9.9
	c4,0,8.7-6.7,9.5-12.3c1.2-8.7,2.8-17.5,4.8-27.4c3.2,9.9-1.2,33.7-6.7,40.1c-4.8,6-11.9,7.1-17.1,1.6c-4.4-4.8-8.7-10.7-11.1-17.1
	c-5.6-14.3-7.5-29-6.7-44c0.4-8.7,0-17.5-0.4-25.8c0-1.6-1.6-3.2-2.4-4.8c-1.6,1.2-4,2-4.4,3.6c-3.2,10.3-6.7,21-9.1,31.7
	c-3.2,14.7-4.8,29.4-2.8,44.4c1.2,7.5-2.4,10.7-8.7,8.3c-2-0.8-3.6-3.2-4.4-5.2s-0.8-4.4-0.8-6.3c-0.4-2-0.8-4.4-1.2-8.3
	C512.1,818.8,521.6,781.5,524,749z"/>
<path d="M631.9,754.9c-1.6,9.1-5.6,15.9-14.7,18.3c-7.5,2-16.7-2.8-21.8-11.1c-11.1-18.7-9.5-38.1-0.4-56.7c2-4,4.4-7.9,7.9-10.7
	c4.4-3.6,9.5-6.7,14.3-9.1c3.6-2,7.5-3.2,11.9-4c4-0.4,7.9,0,11.9,0.8c3.2,0.8,4.4,2.8,1.6,5.6c-2.8,2.8-10.7,4-13.9,1.6
	c-5.2-3.6-9.9-2.8-13.5,0.8c-3.6,3.6-6.7,7.5-8.3,12.3c-7.9,19.4-5.6,38.9,0.8,57.9c2.4,6.7,12.7,7.9,15.9,2
	c3.2-6,7.5-11.1,9.5-17.5c0.8-2.4,5.6-5.2,6-7.9C639.1,736.3,632.3,753.3,631.9,754.9z"/>
<path d="M518.8,791.8c-5.2,8.3-14.3,4.4-22.6-10.3c-0.8,1.6-2.4,2.8-2.4,4c-1.6,9.1-5.6,15.9-14.7,18.3c-7.5,2-16.7-2.8-21.8-11.1
	c-11.1-18.7-9.5-38.1-0.4-56.7c2-4,4.4-7.9,7.9-10.7c4.4-3.6,9.5-6.7,14.3-9.1c3.6-2,7.5-3.2,11.9-4c4-0.4,7.9,0,11.9,0.8
	c3.2,0.8,4.4,2.8,1.6,5.6c-2.8,2.8-10.7,4-13.9,1.6c-5.2-3.6-9.9-2.8-13.5,0.8c-3.6,3.6-6.7,7.5-8.3,12.3
	c-7.9,19.4-5.6,38.9,0.8,57.9c2.4,6.7,12.7,7.9,15.9,2c3.2-6,4.4-12.7,6.7-19c0.8-2.4,2-5.2,2.4-7.5c0.4-1.6-1.2-3.2-1.2-4.8
	c-0.8-9.9-1.6-19.8-2.4-30.2c-0.4-7.9,5.6-5.6,9.5-6.3c4.8-0.8,5.6,1.6,6,6c0.8,13.9,2.4,27.8,4,41.7c0.8,5.6,2.8,11.1,4.4,16.7
	C514.5,791,516.9,791.4,518.8,791.8z"/>
<path d="M464.5,800.6c0,6-12.7,21.8-19.4,20.2c-6.3-1.6-10.3-6-12.3-11.5c-3.2-8.3-6.3-17.1-7.1-25.8c-1.6-13.9-2-27.8-2.8-41.3
	c-3.6,1.6-7.9,3.6-11.9,5.6c-1.2,0.8-6.3,2-10.3-4c-5.6-8.3-6.3-18.3-1.6-27.8c0.8-1.6,2.8-2.8,4-4c1.6,1.6,3.6,2.8,4.4,4.4
	c1.6,6,2.4,11.9,4,18.7c11.1-2.8,20.2-8.3,26.2-18.3c0.8,0,1.2,0,2,0c0,2.8,1.2,6,0.4,8.3c-9.5,24.6-8.3,49.2-2.8,73.8
	c0.8,4,2.8,7.9,5.2,11.5c4.4,6.7,9.1,7.1,15.5,2L464.5,800.6z"/>
<path d="M441.5,847.4c0.8-1.2,2-3.6,2.8-3.6c19.4-2.8,38.5-5.2,57.9-7.5c2.8-0.4,5.6,2,8.3,2.4c1.6,0.4,3.6-1.2,4.8-0.8
	c7.1,3.6,15.5,6.3,21.4,11.5c4.4,4,6,10.7,8.7,16.3c-0.8,0.4-1.6,0.8-2.4,1.2c-2-3.6-4-7.1-5.2-11.1c-2.4-7.1-8.3-9.9-14.3-12.3
	c-12.7-4.8-26.2-5.2-39.7-3.6c-13.1,1.6-25.8,3.2-38.9,5.2C443.8,845.8,442.6,847,441.5,847.4L441.5,847.4z"/>
<path d="M256.1,835.1c7.5,7.9,13.9,17.5,23,23.8c8.7,6.3,19.8,9.1,28.2,12.7c6,0,10.7,0,16.3,0c-5.2,4-13.9,3.6-29.8-1.6
	C276,864.5,262.5,853.3,256.1,835.1z"/>
<path d="M494.6,874.8c0.4,1.2,0.8,1.6,0.8,1.6c-1.2,8.7,1.2,15.9,9.5,20.2c7.1,4,19.8,2.4,25.8-4c4.4-5.2,7.1-11.5,10.7-17.5
	c0.8-1.2,0.8-2.8,1.2-4.4c0.8,0,1.2,0.4,2,0.4c-0.4,3.2-0.8,6.7-1.6,9.5c-5.6,16.3-25.8,25.8-41.7,17.1
	C493,893.8,490.3,884.3,494.6,874.8z"/>
<path d="M652.2,701.4c-0.8,6-1.6,13.1-2.4,20.6c0,0.8-1.2,1.2-2,2c-3.6,2-4,4-0.4,6.7c1.6,1.2,2.4,3.6,2.8,5.2
	c2,6.7,2.8,13.9,5.6,20.2c1.6,3.2,6,6.7,9.1,6.7c2.8,0,6.7-4,8.3-7.1c5.2-9.9,6-21,5.2-32.1c-0.4-7.1-1.2-14.3-1.6-21
	c2.8-1.6,7.5-4.8,7.5-5.6c-2-0.8-4.4-2-6.3-2.8c0-0.4,0-0.8,0-1.6c4-0.4,7.1,55.6,5.2,52.4c-1.2,3.6-2,6.3-3.2,9.5
	c-4,10.3-10.7,16.3-18.7,14.3c-5.2-1.2-10.7-4.4-14.7-7.9c-4-4-7.9-8.7-6.7-15.9c0.4-1.6-2.4-4-2.8-6c-2.4-20.6,2.8-39.3,19-53.2
	c8.7-7.9,23.8,2.8,19.4-0.8c-4.8-4-12.3-0.4-17.5,7.1C656.1,695,654.5,697.8,652.2,701.4z"/>
<path d="M663.3,769.6c15.5-8.3,17.5-23.4,17.9-38.5c0-7.9-2.4-15.9-3.6-23.8c-1.2-7.1-2.8-12.7-12.7-12.7c-3.2,0-7.9-5.6-9.1-9.5
	c-0.8-2.8,2.8-9.1,5.6-9.5c3.6-0.8,7.9,2.4,12.3,3.6c-0.4,1.2-0.8,2.4-1.2,3.6c-1.6,0-3.2-0.4-4.4,0c-2.4,1.6-4.4,3.6-6.3,5.2
	c2.4,1.2,5.2,3.6,7.1,3.2c10.3-2.4,20.6-6,32.1-7.1c-6.7,3.6-13.1,6.7-20.6,10.7c1.6,9.1,4.8,19,4,28.2c-0.8,13.1-3.6,26.6-7.5,39.3
	C676,766.4,668,767.2,663.3,769.6C662.9,769.6,663.3,769.6,663.3,769.6z"/>
<path d="M400.2,841.4c2.8,2.8,4.4,29.8,2.4,36.9C399,876.4,397,851.8,400.2,841.4z"/>
<path d="M335.1,871.6c7.1-2.4,14.3-4.8,21.8-6.7c7.1-2,14.3-3.2,21.4-4.4C368.8,866,338.7,873.6,335.1,871.6z"/>
<path d="M441.5,847.4c-5.6,1.6-10.7,3.2-16.3,5.2c0-0.4-0.4-0.8-0.4-1.6C429.9,848.6,435.1,845,441.5,847.4L441.5,847.4z"/>
</svg>
