<?xml version="1.0" encoding="utf-8"?>
<!-- Generator: Adobe Illustrator 18.1.0, SVG Export Plug-In . SVG Version: 6.00 Build 0)  -->
<!DOCTYPE svg PUBLIC "-//W3C//DTD SVG 1.1//EN" "http://www.w3.org/Graphics/SVG/1.1/DTD/svg11.dtd">
<svg version="1.1" id="Layer_1" xmlns="http://www.w3.org/2000/svg" xmlns:xlink="http://www.w3.org/1999/xlink" x="0px" y="0px"
	 viewBox="348.6 208.6 189 151.5" enable-background="new 348.6 208.6 189 151.5" xml:space="preserve">
<path d="M457.5,286.1c-0.3-4.4-3.4-6.8-7.5-5.9c-1.3,0.2-2.4,0.9-3.6,1.5c-0.3,0.2-0.5,0.5-0.7,0.8c0.4,0.2,0.7,0.1,0.9-0.1
	c1.9-1.5,4.1-2.2,6.2-1c2.2,1.3,3.2,3.5,3.1,6.1c-0.1,4.1-2.3,6.9-6,8.5c-4.2,1.8-8.6,1.8-13.1,1.3c-5.8-0.7-10.9-3.1-16-5.6
	c-0.5-0.3-1.2-0.2-1.6-0.2c-0.7-0.6-1.2-1.3-1.9-1.6c-5.1-2.3-10.3-4.5-15.5-6.7c-1.3-0.5-1.9-1.2-2-2.6c-0.4-3.7-0.9-7.4-1.5-11
	c-0.3-1.7-0.1-3,1.1-4.3c3.2-3.5,6-7.4,7.7-11.9c1.3-3.3,1.7-6.7,0.3-10.1c-0.5-1.5-1.4-3-3-3.1c-1.4-0.1-3,0-4.3,1.2
	c-1.9,1.7-2.7,3.9-3.6,6.1c-0.6,1.4-1.6,2.7-0.4,4.3c-0.3-0.2-0.5-0.4-0.9-0.7c-1.5,5.2-0.9,10.3-0.2,15.7c-1.4,0.4-2.9,0.9-4.5,1.3
	c-3.8,0.9-7.6,1.2-9.6,0.3c-1.7-0.8-3.5-1.8-4.7-3.2c-3.6-3.9-3.1-10.7,0.9-13.9c2.9-2.3,6.3-1.2,7.3,2.4c0.1,0.3,0.3,0.7,0.5,1.1
	c0.1,0,0.3-0.1,0.4,0.1c0-0.1,0.1-0.3,0.1-0.4c0.1-1.8-0.6-3.4-2.2-4.3c-2.1-1.3-4.2-1.2-6.3,0.1c-4,2.5-6.2,7.9-5.1,12.5
	c1,4.5,4.7,7.7,9.3,8c4.2,0.3,8.3-0.6,12.4-1.7c1.2-0.4,1.9-0.2,2.1,1.2c0.6,3.1,1.2,6.1,1.8,9.1c0.1,0.6,0.2,1.3,0.3,2.1
	c-0.5,0.1-0.9,0.1-1.3,0.2c-2,0.4-3.8,1.3-5.1,3c-0.9,1.2-1.4,2.6-0.6,4.1c0.7,1.5,2.1,1.8,3.6,1.8c2.6-0.1,4.1-1.7,5-3.9
	c0.9-2.1,0.9-2.3,3.1-1.4c3.9,1.5,7.7,3.2,11.4,5c4.3,2,8.5,4.5,12.9,6.4c0.4,0.2,0.8,0.3,1.2,0.5c1.5,0.6,3.1,1,4.7,1.4
	c0.9,0.2,1.9,0.4,2.8,0.6c2.9,0.4,5.8,0.5,8.7,0.5c1.5,0,3-0.4,4.4-0.8C454.4,297,458,291.9,457.5,286.1z M397.5,285.4
	c0,0.1-0.1,0.3-0.2,0.4c-0.4,1-1.1,2-1.9,2.8c-0.2,0.2-0.3,0.3-0.5,0.4c-0.7,0.4-1.5,0.3-2.3-0.1c-0.1-0.1-0.3-0.2-0.4-0.3
	c0,0-0.1-0.1-0.1-0.1c-0.1-0.1-0.2-0.2-0.2-0.3c-0.4-0.7-0.1-1.4,0.2-2.2c0.2-0.4,0.3-0.9,0.5-1.4c0.5-0.2,1-0.4,1.5-0.7
	c0.5-0.2,1-0.6,1.5-0.6c1.4-0.1,2.2,0,2.2,1C397.8,284.6,397.7,284.9,397.5,285.4z M397.7,264.1c-0.3-1.1-0.6-1.7-0.7-2.3
	c-0.7-5.8-0.4-11.5,2-16.9c0.9-1.9,2-3.1,3.4-3.2c0.1,0,0.1,0,0.2,0c0,0,0.1,0,0.2,0c0,0,0.1,0,0.1,0c1.6,0.2,2.9,1.8,3.2,4.1
	c0.5,4.1-1,7.7-2.8,11.3c-0.2,0.5-1.1,1.1-0.2,1.8c0,0.1-0.2,0.5-0.4,0.7c0,0,0,0,0,0c0,0,0,0-0.1,0s-0.1,0-0.2-0.1c0,0-0.1,0-0.1,0
	c0,0-0.1,0-0.1,0c-0.1,0-0.1-0.1-0.2-0.1C400.8,260.7,399.4,262.2,397.7,264.1C397.8,264,397.7,264.1,397.7,264.1z"/>
<path d="M472.3,262.1c-0.1,0.3-0.1,0.6-0.2,0.8c-0.4,2.2-0.8,4.1-1,6.1c-0.2,1.4-1.4,3.1-2.4,3.1c-1.5-0.1-1.8-1.5-2.3-2.5
	c-0.1-0.2-0.1-0.4-0.1-0.6c-0.3-4-0.5-8.1-0.9-12.2c-0.2-2-0.4-4-0.8-6c-0.3-1.5-1.2-2.8-3-2.8c-1.7,0-2.5,1.2-2.9,2.5
	c-0.7,2.2-1.2,4.4-1.7,6.6c-0.4,1.6-0.6,3.1-0.8,4.7h-0.6c-0.2-2.5-0.4-5-0.6-7.6c0.1-1,0.2-2,0.3-3.1c0.2-1.4-0.5-1.7-1.7-1.6
	c-2.1,0.1-2.6,0.4-2.4,1.8c0.4,3.7,0.8,7.3,1.3,11c0.5,3.4-0.8,6.1-3.2,8.3c-2.3,2.2-4.5,1.7-6.2-0.9c-0.6-0.9-0.7-1.5,0.2-2.4
	c3.4-3.6,6.3-7.6,7.2-12.7c0.3-1.9,0.2-3.8-1.6-4.9c-1.9-1.1-3.7-0.4-5.3,0.7c-0.3,0.2-0.6,0.5-0.9,0.8c-2,2-3.2,4.5-3.9,7.2
	c-0.1,0.4,0.2,0.9,0.3,1.2c-0.2,0.4-0.7,0.7-0.4,1.1c-0.6,3.1-0.4,6.2,1.2,9c0.6,1.1,0.7,2.2,0.3,3.3c-0.5,1.5-0.6,3.4-2.6,3.5
	c-2,0.2-2.6-1.6-3.2-3.1c-1.3-3.3-1.5-6.8-1.5-10.3c0-0.6-0.1-1.2-0.2-1.8c-0.8,0.1-1.5,0.2-2.3,0.3c0.2,2.3,0.4,4.7,0.6,7
	c0.1,0.8,0.2,1.7,0.5,2.4c0.6,1.7,1.1,3.5,2.1,5c1.8,2.7,4.8,2.5,6.3-0.4c0.6-1.1,0.9-2.3,1.4-3.6c2.2,1.7,4.6,2.2,7.1,1
	s3.5-3.7,4.8-6.3c0.1,1,0.2,1.6,0.3,2.1c0,0.5,0,1.1,0.2,1.6s0.6,1.1,1.1,1.3c1.6,0.6,2.5-0.2,2.2-2.1c-0.5-3.8-0.1-7.5,0.7-11.2
	c0.6-2.7,1.5-5.4,2.3-8c0.1-0.4,0.7-0.6,1.1-0.9c0.2,0.4,0.6,0.8,0.6,1.2c0.1,2.1,0.2,4.3,0.1,6.5c-0.2,3.8,0.3,7.5,1.7,11.1
	c0.6,1.6,1.7,3.1,2.8,4.3c1.3,1.4,3.1,1.1,4.3-0.4c1.1-1.2,2-5.2,2-8v0C472.6,263.4,472.5,262.7,472.3,262.1z M441.2,267.5
	c0.2-1,0.5-1.5,0.4-1.9c-0.3-4-0.1-7.9,1.5-11.6c0.3-0.9,0.9-1.8,1.6-2.5c0.8-0.9,1.8-0.7,2.2,0.5c0.4,0.9,0.4,1.9,0.6,3
	c0.4-0.2,0.7-0.3,1.5-0.6c-0.2,1-0.3,1.6-0.5,2.7c-0.5-0.7-0.7-0.9-1-1.3c-0.1,0.4-0.3,0.6-0.3,0.9c-0.7,3.5-1.9,6.8-4.2,9.6
	C442.6,266.8,441.8,267.1,441.2,267.5z"/>
<path d="M427,256.1c2.9-0.9,5.2-2.2,6.8-4.7c0.2,0,0.3,0.1,0.5,0.1c0.1,0.7,0.3,1.4,0.1,2c-0.6,2.1-1.2,4.3-1.9,6.5
	c-0.4,0-1,0-1.7,0c0,0.1,0,0.4,0.1,0.7c-0.1,0-0.2,0-0.3,0c0-1,0-2,0-3.1c-1.3,0.6-2.4,1.1-3.5,1.7c-0.4,0.2-0.6,0.8-0.7,1.3
	c-0.4,3.4-0.7,6.8-1.2,10.2c-0.2,1.4-0.8,2.8-1.5,4.1c-1.1,2.1-3,2.4-4.8,0.9c-1-0.8,0.5-1.4,2.3-1.1c1.1,0.2,2.6-0.9,2.9-3
	c0.7-3.9,1-7.8,1.4-11.7c0-0.4-0.4-0.8-0.6-1.1c-1.6-2.4-1.9-4.9-0.9-7.5c0.2-0.5,0.8-0.8,1.2-1.2c0.4,0.4,0.9,0.8,1.1,1.3
	C426.6,253,426.7,254.5,427,256.1z"/>
<path d="M489.1,266.1c-1.3,2.1-3.6,1.1-5.7-2.6c-0.2,0.4-0.6,0.7-0.6,1c-0.4,2.3-1.4,4-3.7,4.6c-1.9,0.5-4.2-0.7-5.5-2.8
	c-2.8-4.7-2.4-9.6-0.1-14.3c0.5-1,1.1-2,2-2.7c1.1-0.9,2.4-1.7,3.6-2.3c0.9-0.5,1.9-0.8,3-1c1-0.1,2,0,3,0.2
	c0.8,0.2,1.1,0.7,0.4,1.4s-2.7,1-3.5,0.4c-1.3-0.9-2.5-0.7-3.4,0.2s-1.7,1.9-2.1,3.1c-2,4.9-1.4,9.8,0.2,14.6c0.6,1.7,3.2,2,4,0.5
	s1.1-3.2,1.7-4.8c0.2-0.6,0.5-1.3,0.6-1.9c0.1-0.4-0.3-0.8-0.3-1.2c-0.2-2.5-0.4-5-0.6-7.6c-0.1-2,1.4-1.4,2.4-1.6
	c1.2-0.2,1.4,0.4,1.5,1.5c0.2,3.5,0.6,7,1,10.5c0.2,1.4,0.7,2.8,1.1,4.2C488,265.9,488.6,266,489.1,266.1z"/>
<path d="M412.7,260.2c-0.2,1.5-0.4,3.3-0.6,5.2c0,0.2-0.3,0.3-0.5,0.5c-0.9,0.5-1,1-0.1,1.7c0.4,0.3,0.6,0.9,0.7,1.3
	c0.5,1.7,0.7,3.5,1.4,5.1c0.4,0.8,1.5,1.7,2.3,1.7c0.7,0,1.7-1,2.1-1.8c1.3-2.5,1.5-5.3,1.3-8.1c-0.1-1.8-0.3-3.6-0.4-5.3
	c0.7-0.4,1.9-1.2,1.9-1.4c-0.5-0.2-1.1-0.5-1.6-0.7c0-0.1,0-0.2,0-0.4c1-0.1,1.8,14,1.3,13.2c-0.3,0.9-0.5,1.6-0.8,2.4
	c-1,2.6-2.7,4.1-4.7,3.6c-1.3-0.3-2.7-1.1-3.7-2c-1-1-2-2.2-1.7-4c0.1-0.4-0.6-1-0.7-1.5c-0.6-5.2,0.7-9.9,4.8-13.4
	c2.2-2,6,0.7,4.9-0.2c-1.2-1-3.1-0.1-4.4,1.8C413.7,258.6,413.3,259.2,412.7,260.2z"/>
<path d="M458,242.7c-2.2,0.4-4.4,0.8-6.6,1.3c-3.2,0.7-6.4,1.4-9.6,2.1c-3.4,0.7-6.8,1.2-10.1,2.1c-3.5,0.9-7,1.1-10.5,0.8
	c-1.6-0.2-3.2-0.7-4.8-1.2c-0.4-0.1-0.7-0.5-1-0.7c0.1-0.1,0.1-0.2,0.2-0.3c0.7,0.3,1.4,0.6,2.1,0.9c2.8,1.2,5.7,1,8.5,0.7
	c3.8-0.4,7.7-1.1,11.5-1.9c5.6-1.1,11.2-2.5,16.8-3.7c0.8-0.2,1.7-0.4,2.5-0.6c0.3-0.1,0.7,0,1.1,0.1C458,242.4,458,242.5,458,242.7
	z"/>
<path d="M500,245.2c-2.3-2.2-5-3.7-7.9-4.7c-4.2-1.5-8.5-1-12.7-0.8c-1,0-2.1-0.2-3.1-0.1c-1.2,0.2-2.4,0.6-3.7,0.8
	c-1.5,0.3-3,0.4-4.7,0.3c0.2-0.1,0.3-0.4,0.5-0.4c5.8-0.5,11.6-1.3,17.4-1.5c4.6-0.2,8.9,1.4,12.5,4.4
	C498.9,243.8,499.4,244.6,500,245.2z"/>
<path d="M412.6,240.8c-0.5-2,0.2-3.6,1.5-5c2.3-2.5,6.8-2.6,9-0.3c1.2,1.2,1.7,2.7,1.2,4.3c-0.2,0.7-1,1.2-1.7,1.7
	c1.4-1,1.6-2.3,1.1-3.8c-0.6-1.8-2.3-3.1-4.2-3.2c-2.2-0.2-5.8,1.3-6.6,4.8C412.8,239.7,412.7,240.3,412.6,240.8z"/>
<path d="M415.5,278c3.9-2.1,4.4-5.9,4.5-9.7c0-2-0.6-4-0.9-6c-0.3-1.8-0.7-3.2-3.2-3.2c-0.8,0-2-1.4-2.3-2.4
	c-0.2-0.7,0.7-2.3,1.4-2.4c0.9-0.2,2,0.6,3.1,0.9c-0.1,0.3-0.2,0.6-0.3,0.9c-0.4,0-0.8-0.1-1.1,0c-0.6,0.4-1.1,0.9-1.6,1.3
	c0.6,0.3,1.3,0.9,1.8,0.8c2.6-0.6,5.2-1.5,8.1-1.8c-1.7,0.9-3.3,1.7-5.2,2.7c0.4,2.3,1.2,4.8,1,7.1c-0.2,3.3-0.9,6.7-1.9,9.9
	C418.7,277.1,416.7,277.4,415.5,278C415.4,277.9,415.5,278,415.5,278z"/>
<path d="M458.8,241.8c2.8-0.5,5.6-0.9,8.7-1.4C466.1,241.7,460.3,242.5,458.8,241.8z"/>
<path d="M414.7,246.3c-1.6-1.1-2.1-2.8-2.2-4.6C413.2,243.2,414,244.8,414.7,246.3z"/>
<path d="M397.8,264c1.7-1.9,3-3.3,4.3-4.7C400.8,260.8,399.5,262.2,397.8,264C397.8,264.1,397.8,264,397.8,264z"/>
<path d="M402.3,259.4c0.1,0.1,0.3,0.1,0.3,0.2C402.5,259.5,402.4,259.5,402.3,259.4z"/>
<path d="M403.4,257.1c-0.3,0.5-1.1,1.1-0.2,1.8c0.1,0-0.2,0.5-0.4,0.7c0,0-0.1,0-0.1,0c0.2-0.2,0.4-0.6,0.4-0.7
	c-0.9-0.7,0-1.3,0.2-1.8c1.8-3.6,3.3-7.2,2.8-11.3c-0.3-2.3-1.6-3.9-3.2-4.1c-0.1,0-0.2,0-0.3,0c0.1,0,0.2,0,0.4,0
	c1.6,0.2,2.9,1.8,3.2,4.1C406.7,249.9,405.2,253.5,403.4,257.1z"/>
<path d="M392.1,286c-0.3,0.8-0.7,1.5-0.2,2.2C391.4,287.5,391.7,286.8,392.1,286z"/>
<path d="M394.1,283.9c-0.5,0.3-1,0.5-1.5,0.7C393.1,284.4,393.6,284.1,394.1,283.9z"/>
<path d="M414.2,309.9c-3.9,1.4-7,3.7-8.2,7.9c-1.5,5.7-0.2,10.8,3.6,15.3c0.6,0.7,1.2,1.5,1.9,2.2c1.6,1.7,3.8,2.1,5.9,2.7
	c4.3,1.2,7.6-0.8,10.4-3.9c2.3-2.6,3.5-5.8,4.1-9.2c0.1-0.7,0.4-1.3,0.7-2.1c-0.1-0.6-0.3-1.3-0.3-2c-0.1-1.1,0.1-2.3-0.1-3.4
	c-0.3-2.2,0.2-2.8,2.3-3.6c-0.7-0.9-1.7-0.3-2.5-0.4c-0.2,0-0.4,0.7-0.7,1.2c-2.8,0.3-5.8,0.6-8.8,0.9c0-0.1-0.1-0.2-0.1-0.4
	c1.8-0.5,3.6-0.9,5.4-1.4c0.6-0.2,1.3-0.4,1.9-0.5c1.7-0.1,1.9-1.1,1.5-2.5c-0.9-3.5-1.8-7.1-2.7-10.6c-0.2-0.9-0.4-1.8-0.6-3
	c1.1-0.2,2.3-0.5,3.5-0.7c0.3,0,0.9,0.5,1,0.8c0.3,2.1,0.4,4.2,0.7,6.3c0.3,1.7,0.8,3.4,1.1,5.1c0.2,1,0.4,2.1,0.6,3.4
	c1.3-0.3,2.6-0.5,3.8-0.9c1.4-0.5,1.8,0.4,2.1,1.5c0.3,1.4-0.9,1.1-1.5,1.3c-0.8,0.2-1.7,0.3-2.6,0.3c-1,0-1.7,0.2-1.6,1.2
	c-0.8,0.3-1.8,0.3-1.9,0.7c-0.3,1.1,0.6,0.8,1.2,0.7c0.2,0,0.5-0.1,0.9-0.3c0.4,4.9-0.7,9.3-2.9,13.7c-0.1-0.3-0.2-0.6-0.4-1.1
	c-0.3,0.6-0.7,1.1-0.6,1.3c0.7,0.9,0,1.4-0.4,2c-2.8,3.7-6.2,6.8-11,7.6c-1.6,0.3-3.2,0.6-4.9-0.6c-0.8-0.6-2.4-0.4-3.5-1.2
	c-4.3-2.9-6.5-7-7.2-12c-0.3-2-0.2-4.2,0.1-6.2c0.7-4.6,3.5-7.7,7.6-9.8c0.7-0.3,4.4-1.5,5.7-1.7c3.7-0.7,7.5-1.1,11,1
	c0.3,0.2,0.4,0.6,0.5,1.1c-4-1.8-8-2.1-12.1-1.1C415.8,309.4,414.6,309.7,414.2,309.9z"/>
<path d="M469,313.5c0.2-3.7-0.9-7.3-1.3-11c-0.2-1.4,0.3-1.7,2.4-1.8c1.2-0.1,1.9,0.2,1.7,1.6c-0.1,1.1-0.2,2.1-0.3,3.1
	c0.2,2.6,0.4,5.1,0.6,7.6c0.2,0,0.4,0,0.6,0c0.2-1.6,0.4-3.1,0.8-4.7c0.5-2.2,1-4.4,1.7-6.6c0.4-1.3,1.2-2.5,2.9-2.5
	c1.8,0,2.7,1.3,3,2.8c0.4,2,0.6,4,0.8,6c0.4,4.1,0.6,8.2,0.9,12.2c0,0.2,0,0.4,0.1,0.6c0.5,1,0.8,2.4,2.3,2.5c1,0,2.2-1.7,2.4-3.1
	c0.3-2.2,0.7-4.4,1.2-6.9c0.8,2.5-0.3,8.5-1.7,10.1c-1.2,1.5-3,1.8-4.3,0.4c-1.1-1.2-2.2-2.7-2.8-4.3c-1.4-3.6-1.9-7.3-1.7-11.1
	c0.1-2.2,0-4.4-0.1-6.5c0-0.4-0.4-0.8-0.6-1.2c-0.4,0.3-1,0.5-1.1,0.9c-0.8,2.6-1.7,5.3-2.3,8c-0.8,3.7-1.2,7.4-0.7,11.2
	c0.3,1.9-0.6,2.7-2.2,2.1c-0.5-0.2-0.9-0.8-1.1-1.3s-0.2-1.1-0.2-1.6c-0.1-0.5-0.2-1.1-0.3-2.1C466,331.1,468.4,321.7,469,313.5z"/>
<path d="M496.2,315c-0.4,2.3-1.4,4-3.7,4.6c-1.9,0.5-4.2-0.7-5.5-2.8c-2.8-4.7-2.4-9.6-0.1-14.3c0.5-1,1.1-2,2-2.7
	c1.1-0.9,2.4-1.7,3.6-2.3c0.9-0.5,1.9-0.8,3-1c1-0.1,2,0,3,0.2c0.8,0.2,1.1,0.7,0.4,1.4c-0.7,0.7-2.7,1-3.5,0.4
	c-1.3-0.9-2.5-0.7-3.4,0.2c-0.9,0.9-1.7,1.9-2.1,3.1c-2,4.9-1.4,9.8,0.2,14.6c0.6,1.7,3.2,2,4,0.5s1.9-2.8,2.4-4.4
	c0.2-0.6,1.4-1.3,1.5-2C498,310.3,496.3,314.6,496.2,315z"/>
<path d="M467.7,324.3c-1.3,2.1-3.6,1.1-5.7-2.6c-0.2,0.4-0.6,0.7-0.6,1c-0.4,2.3-1.4,4-3.7,4.6c-1.9,0.5-4.2-0.7-5.5-2.8
	c-2.8-4.7-2.4-9.6-0.1-14.3c0.5-1,1.1-2,2-2.7c1.1-0.9,2.4-1.7,3.6-2.3c0.9-0.5,1.9-0.8,3-1c1-0.1,2,0,3,0.2
	c0.8,0.2,1.1,0.7,0.4,1.4c-0.7,0.7-2.7,1-3.5,0.4c-1.3-0.9-2.5-0.7-3.4,0.2c-0.9,0.9-1.7,1.9-2.1,3.1c-2,4.9-1.4,9.8,0.2,14.6
	c0.6,1.7,3.2,2,4,0.5s1.1-3.2,1.7-4.8c0.2-0.6,0.5-1.3,0.6-1.9c0.1-0.4-0.3-0.8-0.3-1.2c-0.2-2.5-0.4-5-0.6-7.6
	c-0.1-2,1.4-1.4,2.4-1.6c1.2-0.2,1.4,0.4,1.5,1.5c0.2,3.5,0.6,7,1,10.5c0.2,1.4,0.7,2.8,1.1,4.2
	C466.6,324.1,467.2,324.2,467.7,324.3z"/>
<path d="M454,326.5c0,1.5-3.2,5.5-4.9,5.1c-1.6-0.4-2.6-1.5-3.1-2.9c-0.8-2.1-1.6-4.3-1.8-6.5c-0.4-3.5-0.5-7-0.7-10.4
	c-0.9,0.4-2,0.9-3,1.4c-0.3,0.2-1.6,0.5-2.6-1c-1.4-2.1-1.6-4.6-0.4-7c0.2-0.4,0.7-0.7,1-1c0.4,0.4,0.9,0.7,1.1,1.1
	c0.4,1.5,0.6,3,1,4.7c2.8-0.7,5.1-2.1,6.6-4.6c0.2,0,0.3,0,0.5,0c0,0.7,0.3,1.5,0.1,2.1c-2.4,6.2-2.1,12.4-0.7,18.6
	c0.2,1,0.7,2,1.3,2.9c1.1,1.7,2.3,1.8,3.9,0.5L454,326.5z"/>
<path d="M448.2,338.3c0.2-0.3,0.5-0.9,0.7-0.9c4.9-0.7,9.7-1.3,14.6-1.9c0.7-0.1,1.4,0.5,2.1,0.6c0.4,0.1,0.9-0.3,1.2-0.2
	c1.8,0.9,3.9,1.6,5.4,2.9c1.1,1,1.5,2.7,2.2,4.1c-0.2,0.1-0.4,0.2-0.6,0.3c-0.5-0.9-1-1.8-1.3-2.8c-0.6-1.8-2.1-2.5-3.6-3.1
	c-3.2-1.2-6.6-1.3-10-0.9c-3.3,0.4-6.5,0.8-9.8,1.3C448.8,337.9,448.5,338.2,448.2,338.3L448.2,338.3z"/>
<path d="M401.5,335.2c1.9,2,3.5,4.4,5.8,6c2.2,1.6,5,2.3,7.1,3.2c1.5,0,2.7,0,4.1,0c-1.3,1-3.5,0.9-7.5-0.4
	C406.5,342.6,403.1,339.8,401.5,335.2z"/>
<path d="M461.6,345.2c0.1,0.3,0.2,0.4,0.2,0.4c-0.3,2.2,0.3,4,2.4,5.1c1.8,1,5,0.6,6.5-1c1.1-1.3,1.8-2.9,2.7-4.4
	c0.2-0.3,0.2-0.7,0.3-1.1c0.2,0,0.3,0.1,0.5,0.1c-0.1,0.8-0.2,1.7-0.4,2.4c-1.4,4.1-6.5,6.5-10.5,4.3
	C461.2,350,460.5,347.6,461.6,345.2z"/>
<path d="M501.3,301.5c-0.2,1.5-0.4,3.3-0.6,5.2c0,0.2-0.3,0.3-0.5,0.5c-0.9,0.5-1,1-0.1,1.7c0.4,0.3,0.6,0.9,0.7,1.3
	c0.5,1.7,0.7,3.5,1.4,5.1c0.4,0.8,1.5,1.7,2.3,1.7c0.7,0,1.7-1,2.1-1.8c1.3-2.5,1.5-5.3,1.3-8.1c-0.1-1.8-0.3-3.6-0.4-5.3
	c0.7-0.4,1.9-1.2,1.9-1.4c-0.5-0.2-1.1-0.5-1.6-0.7c0-0.1,0-0.2,0-0.4c1-0.1,1.8,14,1.3,13.2c-0.3,0.9-0.5,1.6-0.8,2.4
	c-1,2.6-2.7,4.1-4.7,3.6c-1.3-0.3-2.7-1.1-3.7-2c-1-1-2-2.2-1.7-4c0.1-0.4-0.6-1-0.7-1.5c-0.6-5.2,0.7-9.9,4.8-13.4
	c2.2-2,6,0.7,4.9-0.2c-1.2-1-3.1-0.1-4.4,1.8C502.3,299.9,501.9,300.6,501.3,301.5z"/>
<path d="M504.1,318.7c3.9-2.1,4.4-5.9,4.5-9.7c0-2-0.6-4-0.9-6c-0.3-1.8-0.7-3.2-3.2-3.2c-0.8,0-2-1.4-2.3-2.4
	c-0.2-0.7,0.7-2.3,1.4-2.4c0.9-0.2,2,0.6,3.1,0.9c-0.1,0.3-0.2,0.6-0.3,0.9c-0.4,0-0.8-0.1-1.1,0c-0.6,0.4-1.1,0.9-1.6,1.3
	c0.6,0.3,1.3,0.9,1.8,0.8c2.6-0.6,5.2-1.5,8.1-1.8c-1.7,0.9-3.3,1.7-5.2,2.7c0.4,2.3,1.2,4.8,1,7.1c-0.2,3.3-0.9,6.7-1.9,9.9
	C507.3,317.9,505.3,318.1,504.1,318.7C504,318.7,504.1,318.7,504.1,318.7z"/>
<path d="M437.8,336.8c0.7,0.7,1.1,7.5,0.6,9.3C437.5,345.6,437,339.4,437.8,336.8z"/>
<path d="M421.4,344.4c1.8-0.6,3.6-1.2,5.5-1.7c1.8-0.5,3.6-0.8,5.4-1.1C429.9,343,422.3,344.9,421.4,344.4z"/>
<path d="M448.2,338.3c-1.4,0.4-2.7,0.8-4.1,1.3c0-0.1-0.1-0.2-0.1-0.4C445.3,338.6,446.6,337.7,448.2,338.3L448.2,338.3z"/>
</svg>
