<?xml version="1.0" encoding="utf-8"?>
<!-- Generator: Adobe Illustrator 18.1.0, SVG Export Plug-In . SVG Version: 6.00 Build 0)  -->
<!DOCTYPE svg PUBLIC "-//W3C//DTD SVG 1.1//EN" "http://www.w3.org/Graphics/SVG/1.1/DTD/svg11.dtd">
<svg version="1.1" id="Layer_1" xmlns="http://www.w3.org/2000/svg" xmlns:xlink="http://www.w3.org/1999/xlink" x="0px" y="0px"
	 viewBox="0 0 960 560" enable-background="new 0 0 960 560" xml:space="preserve">
<path fill="#36609F" d="M628.4,517.5H235.9c-22.6,0-41-18.3-41-41V43h474.5v433.5C669.4,499.1,651.1,517.5,628.4,517.5z"/>
<path fill="#FFFFFF" d="M483,280.3h-33.2c0,53.1,0,118.5,0,118.5h-49.3c0,0,0-64.8,0-118.5H377v-41.9h23.4v-27.1
	c0-19.4,9.2-49.7,49.7-49.7l36.5,0.1v40.7c0,0-22.2,0-26.5,0c-4.3,0-10.5,2.2-10.5,11.4v24.6h37.6L483,280.3z"/>
<g>
</g>
<g>
</g>
<g>
</g>
<g>
</g>
<g>
</g>
<g>
</g>
<g>
</g>
<g>
</g>
<g>
</g>
<g>
</g>
<g>
</g>
<g>
</g>
<g>
</g>
<g>
</g>
<g>
</g>
</svg>
