<?xml version="1.0" encoding="utf-8"?>
<!-- Generator: Adobe Illustrator 18.1.0, SVG Export Plug-In . SVG Version: 6.00 Build 0)  -->
<!DOCTYPE svg PUBLIC "-//W3C//DTD SVG 1.1//EN" "http://www.w3.org/Graphics/SVG/1.1/DTD/svg11.dtd">
<svg version="1.1" id="Layer_1" xmlns="http://www.w3.org/2000/svg" xmlns:xlink="http://www.w3.org/1999/xlink" x="0px" y="0px"
	 viewBox="0 0 960 560" enable-background="new 0 0 960 560" xml:space="preserve">
<path fill="#066C9A" d="M628.4,517.4H235.9c-22.6,0-41-18.3-41-41V42.9h474.5v433.5C669.4,499,651.1,517.4,628.4,517.4z"/>
<g>
	<path fill="#FFFFFF" d="M446.4,262.7v-0.5c-0.1,0.2-0.2,0.3-0.3,0.5H446.4z"/>
	<path fill="#FFFFFF" d="M367.5,393.3h-50.8V240.6h50.8V393.3z M342.1,219.7h-0.3c-17,0-28-11.8-28-26.4c0-15,11.4-26.4,28.7-26.4
		c17.4,0,28.1,11.4,28.4,26.4C370.8,208,359.8,219.7,342.1,219.7z M550.6,393.3h-50.8v-81.7c0-20.5-7.3-34.6-25.7-34.6
		c-14,0-22.4,9.5-26.1,18.6c-1.3,3.3-1.7,7.8-1.7,12.4v85.3h-50.8c0,0,0.6-138.4,0-152.7h50.8v21.6c6.8-10.4,18.8-25.2,45.8-25.2
		c33.4,0,58.5,21.8,58.5,68.8V393.3z"/>
</g>
<g>
</g>
<g>
</g>
<g>
</g>
<g>
</g>
<g>
</g>
<g>
</g>
<g>
</g>
<g>
</g>
<g>
</g>
<g>
</g>
<g>
</g>
<g>
</g>
<g>
</g>
<g>
</g>
<g>
</g>
</svg>
