<?xml version="1.0" encoding="utf-8"?>
<!-- Generator: Adobe Illustrator 18.1.0, SVG Export Plug-In . SVG Version: 6.00 Build 0)  -->
<!DOCTYPE svg PUBLIC "-//W3C//DTD SVG 1.1//EN" "http://www.w3.org/Graphics/SVG/1.1/DTD/svg11.dtd">
<svg version="1.1" id="Layer_1" xmlns="http://www.w3.org/2000/svg" xmlns:xlink="http://www.w3.org/1999/xlink" x="0px" y="0px"
	 viewBox="0 0 612 792" enable-background="new 0 0 612 792" xml:space="preserve">
<g>
	<path fill="#FFFFFF" d="M284.6,385v-0.3c-0.1,0.1-0.1,0.2-0.2,0.3H284.6z"/>
	<path fill="#FFFFFF" d="M234.3,468.2h-32.4v-97.3h32.4L234.3,468.2L234.3,468.2z M218.1,357.6h-0.2c-10.8,0-17.9-7.5-17.9-16.8
		c0-9.6,7.3-16.8,18.3-16.8c11.1,0,17.9,7.3,18.1,16.8C236.4,350.1,229.4,357.6,218.1,357.6z M351,468.2h-32.4v-52.1
		c0-13.1-4.7-22.1-16.4-22.1c-8.9,0-14.3,6.1-16.6,11.9c-0.8,2.1-1.1,5-1.1,7.9v54.4h-32.4c0,0,0.4-88.2,0-97.3h32.4v13.8
		c4.3-6.6,12-16.1,29.2-16.1c21.3,0,37.3,13.9,37.3,43.9V468.2z"/>
</g>
</svg>
