<?xml version="1.0" encoding="utf-8"?>
<!-- Generator: Adobe Illustrator 18.1.1, SVG Export Plug-In . SVG Version: 6.00 Build 0)  -->
<!DOCTYPE svg PUBLIC "-//W3C//DTD SVG 1.1//EN" "http://www.w3.org/Graphics/SVG/1.1/DTD/svg11.dtd">
<svg version="1.1" id="Layer_1" xmlns="http://www.w3.org/2000/svg" xmlns:xlink="http://www.w3.org/1999/xlink" x="0px" y="0px"
	 width="1182.1px" height="1137.9px" viewBox="0 0 1182.1 1137.9" enable-background="new 0 0 1182.1 1137.9" xml:space="preserve">
<g>
	<g>
		<polygon fill="#08BBDC" points="789.2,35.9 789.2,178.3 574.2,359.4 574.2,215.1 		"/>
		<polygon fill="#08BBDC" points="574.2,445.2 789.6,266.3 789.2,706.6 574.2,967.8 574.2,684.8 		"/>
	</g>
	<polygon fill="#FECF05" points="574.2,749.9 574.2,967.8 359.2,707.5 359.2,35.9 495.2,150.9 495.2,658.4 	"/>
</g>
<g>
	<path fill="#939598" d="M39.1,1015.5v85.4h29.3v14.1H24.1v-99.5H39.1z"/>
	<path fill="#939598" d="M74.9,1064.8c0-14,5.1-26,15.4-36.1c10.2-10.1,22.5-15.1,36.9-15.1c14.2,0,26.3,5.1,36.5,15.2
		c10.2,10.1,15.3,22.3,15.3,36.5c0,14.3-5.1,26.4-15.3,36.4c-10.3,10-22.7,15-37.2,15c-12.8,0-24.4-4.4-34.6-13.3
		C80.5,1093.6,74.9,1080.7,74.9,1064.8z M90.1,1065c0,11,3.7,20,11.1,27.1c7.3,7.1,15.8,10.6,25.5,10.6c10.4,0,19.2-3.6,26.4-10.8
		c7.2-7.3,10.8-16.2,10.8-26.7c0-10.6-3.5-19.5-10.6-26.7c-7-7.2-15.8-10.8-26.2-10.8c-10.4,0-19.1,3.6-26.2,10.8
		C93.6,1045.7,90.1,1054.5,90.1,1065z"/>
	<path fill="#939598" d="M232.9,1072.6l30.8,42.4h-18.4l-28.4-40.7h-2.7v40.7h-15v-99.5h17.6c13.1,0,22.6,2.5,28.5,7.4
		c6.4,5.5,9.7,12.8,9.7,21.8c0,7-2,13.1-6.1,18.2C244.8,1067.9,239.5,1071.2,232.9,1072.6z M214.2,1061.2h4.8
		c14.2,0,21.3-5.4,21.3-16.3c0-10.2-6.9-15.3-20.8-15.3h-5.3V1061.2z"/>
	<path fill="#939598" d="M334.9,1029.6H295v23.9h38.7v14.1H295v33.3h39.9v14.1h-54.9v-99.5h54.9V1029.6z"/>
	<path fill="#939598" d="M355.9,1115v-106.3l72.6,75.9v-69.2h15v105.6l-72.6-75.7v69.7H355.9z"/>
	<path fill="#939598" d="M527.9,1090.8h-42.6l-11.1,24.2H458l49.2-105.8l47.5,105.8h-16.4L527.9,1090.8z M521.8,1076.7l-14.8-33.8
		l-15.5,33.8H521.8z"/>
	<path fill="#939598" d="M660.3,1029.6h-34.7v23.9H659v14.1h-33.5v47.4h-15v-99.5h49.7V1029.6z"/>
	<path fill="#939598" d="M712.7,1072.6l30.8,42.4h-18.4l-28.4-40.7H694v40.7h-15v-99.5h17.6c13.1,0,22.6,2.5,28.5,7.4
		c6.4,5.5,9.7,12.8,9.7,21.8c0,7-2,13.1-6.1,18.2C724.6,1067.9,719.3,1071.2,712.7,1072.6z M694,1061.2h4.8
		c14.2,0,21.3-5.4,21.3-16.3c0-10.2-6.9-15.3-20.8-15.3H694V1061.2z"/>
	<path fill="#939598" d="M818.2,1090.8h-42.6l-11.1,24.2h-16.2l49.2-105.8l47.5,105.8h-16.4L818.2,1090.8z M812.1,1076.7l-14.8-33.8
		l-15.5,33.8H812.1z"/>
	<path fill="#939598" d="M858.9,1115v-106.3l72.6,75.9v-69.2h15v105.6l-72.6-75.7v69.7H858.9z"/>
	<path fill="#939598" d="M1046.1,1020.8v17.8c-8.7-7.3-17.7-10.9-26.9-10.9c-10.2,0-18.8,3.7-25.8,11c-7,7.3-10.6,16.2-10.6,26.8
		c0,10.4,3.5,19.2,10.6,26.4c7,7.2,15.7,10.8,25.9,10.8c5.3,0,9.8-0.9,13.5-2.6c2.1-0.9,4.2-2,6.4-3.5c2.2-1.5,4.5-3.2,7-5.3v18.1
		c-8.6,4.9-17.6,7.3-27.1,7.3c-14.2,0-26.4-5-36.4-14.9c-10-10-15-22.1-15-36.2c0-12.7,4.2-24,12.6-33.9
		c10.3-12.2,23.7-18.2,40-18.2C1029.1,1013.6,1037.7,1016,1046.1,1020.8z"/>
	<path fill="#939598" d="M1060.7,1064.8c0-14,5.1-26,15.4-36.1c10.2-10.1,22.5-15.1,36.9-15.1c14.2,0,26.3,5.1,36.5,15.2
		c10.2,10.1,15.3,22.3,15.3,36.5c0,14.3-5.1,26.4-15.3,36.4c-10.3,10-22.7,15-37.2,15c-12.8,0-24.4-4.4-34.6-13.3
		C1066.4,1093.6,1060.7,1080.7,1060.7,1064.8z M1075.9,1065c0,11,3.7,20,11.1,27.1c7.3,7.1,15.8,10.6,25.5,10.6
		c10.4,0,19.2-3.6,26.4-10.8c7.2-7.3,10.8-16.2,10.8-26.7c0-10.6-3.5-19.5-10.6-26.7c-7-7.2-15.8-10.8-26.2-10.8
		c-10.4,0-19.1,3.6-26.2,10.8C1079.5,1045.7,1075.9,1054.5,1075.9,1065z"/>
</g>
<g>
</g>
<g>
</g>
<g>
</g>
<g>
</g>
<g>
</g>
<g>
</g>
</svg>
