<?xml version="1.0" encoding="utf-8"?>
<!-- Generator: Adobe Illustrator 18.1.0, SVG Export Plug-In . SVG Version: 6.00 Build 0)  -->
<!DOCTYPE svg PUBLIC "-//W3C//DTD SVG 1.1//EN" "http://www.w3.org/Graphics/SVG/1.1/DTD/svg11.dtd">
<svg version="1.1" id="Layer_1" xmlns="http://www.w3.org/2000/svg" xmlns:xlink="http://www.w3.org/1999/xlink" x="0px" y="0px"
	 viewBox="0 0 960 560" enable-background="new 0 0 960 560" xml:space="preserve">
<rect x="222" y="180" width="319" height="218.1"/>
<g>
	<path fill="#FFFFFF" d="M331.7,231.7c-0.3-0.6-0.6-1.2-0.8-1.7c-1.5-5.4-6.6-7.1-11-3.6c-6,4.8-6.8,15.1-1.4,20.9
		c1.8,2.1,4.5,3.6,7.1,4.8c3,1.4,8.7,0.9,14.5-0.5c2.4-0.6,4.7-1.4,6.8-2c-1.1-8.1-2-15.8,0.3-23.7c0.6,0.5,0.9,0.8,1.4,1.1
		c-1.8-2.4-0.3-4.4,0.6-6.5c1.4-3.3,2.6-6.6,5.4-9.2c2-1.8,4.4-2,6.5-1.8c2.4,0.2,3.8,2.4,4.5,4.7c2.1,5.1,1.5,10.2-0.5,15.2
		c-2.6,6.8-6.8,12.7-11.6,17.9c-1.8,2-2.1,3.9-1.7,6.5c0.9,5.4,1.7,11,2.3,16.6c0.2,2.1,1.1,3.2,3,3.9c7.8,3.3,15.7,6.6,23.4,10.1
		c1.1,0.5,1.8,1.5,2.9,2.4c0.6,0,1.7-0.2,2.4,0.3c7.7,3.8,15.4,7.4,24.1,8.4c6.8,0.8,13.4,0.8,19.7-2c5.6-2.4,8.9-6.6,9-12.8
		c0.2-3.9-1.4-7.2-4.7-9.2c-3.2-1.8-6.5-0.8-9.3,1.5c-0.3,0.3-0.8,0.5-1.4,0.2c0.3-0.5,0.6-0.9,1.1-1.2c1.8-0.9,3.5-2,5.4-2.3
		c6.2-1.4,10.8,2.3,11.3,8.9c0.8,8.7-4.7,16.4-13.6,19.1c-2.1,0.6-4.4,1.2-6.6,1.2c-4.4,0-8.7-0.2-13.1-0.8c-4.5-0.8-9-2-13.1-3.6
		c-6.6-2.9-13-6.6-19.4-9.6c-5.6-2.7-11.3-5.3-17.2-7.5c-3.3-1.4-3.3-1.1-4.7,2.1c-1.4,3.3-3.6,5.7-7.5,5.9c-2.3,0-4.4-0.5-5.4-2.7
		c-1.2-2.3-0.5-4.4,0.9-6.2c2-2.6,4.7-3.9,7.7-4.5c0.6-0.2,1.2-0.2,2-0.3c-0.2-1.2-0.3-2.3-0.5-3.2c-0.9-4.5-1.8-9-2.7-13.7
		c-0.3-2.1-1.4-2.4-3.2-1.8c-6.2,1.7-12.4,3-18.7,2.6c-6.9-0.5-12.5-5.3-14-12.1c-1.7-6.9,1.7-15.1,7.7-18.8c3.2-2,6.3-2.1,9.5-0.2
		c2.4,1.4,3.5,3.8,3.3,6.5c0,0.2-0.2,0.5-0.2,0.6C332.2,231.6,331.9,231.7,331.7,231.7z M357.6,238.5c0.3,0.2,0.9,0.5,0.9,0.5
		c0.3-0.3,0.6-0.9,0.6-1.1c-1.4-1.1,0-2,0.3-2.7c2.7-5.4,5-10.8,4.2-17c-0.5-3.5-2.4-5.9-4.8-6.2c-2.4-0.3-4.4,1.7-5.9,4.8
		c-3.6,8.1-4.1,16.7-3,25.5c0.2,0.9,0.6,1.8,1.1,3.5C353.6,242.9,355.7,240.6,357.6,238.5z M343.3,276.6c-0.3,0.8-0.5,1.5-0.8,2.1
		c-0.6,1.4-1.2,2.7,0.2,3.9c1.5,1.2,3.3,1.5,4.8,0c1.4-1.4,2.6-3,3.2-4.8c1.1-2.9-0.2-3.5-2.9-3.2c-0.8,0-1.5,0.6-2.3,0.9
		C344.8,276,344.1,276.3,343.3,276.6z"/>
	<path fill="#FFFFFF" d="M413.4,239c-0.2-0.5-0.6-1.2-0.5-1.8c1.1-4.1,2.9-7.8,5.9-10.8c0.5-0.5,0.9-0.9,1.4-1.2
		c2.4-1.7,5.1-2.7,8-1.1c2.7,1.7,2.9,4.5,2.4,7.4c-1.4,7.7-5.7,13.7-10.8,19.1c-1.4,1.4-1.2,2.3-0.3,3.6c2.6,3.9,5.9,4.7,9.3,1.4
		c3.6-3.3,5.6-7.4,4.8-12.5c-0.8-5.6-1.4-11-2-16.6c-0.3-2.1,0.5-2.6,3.6-2.7c1.8-0.2,2.9,0.3,2.6,2.4c-0.2,1.7-0.3,3.2-0.5,4.7
		c0.3,3.9,0.6,7.7,0.9,11.5c0.3,0,0.6,0,0.9,0c0.3-2.4,0.6-4.7,1.2-7.1c0.8-3.3,1.5-6.6,2.6-9.9c0.6-2,1.8-3.8,4.4-3.8
		c2.7,0,4.1,2,4.5,4.2c0.6,3,0.9,6,1.2,9c0.6,6.2,0.9,12.4,1.4,18.4c0,0.3,0,0.6,0.2,0.9c0.8,1.5,1.2,3.6,3.5,3.8
		c1.5,0,3.3-2.6,3.6-4.7c0.5-3.3,1.1-6.6,1.8-10.4c1.2,3.8-0.5,12.8-2.6,15.2c-1.8,2.3-4.5,2.7-6.5,0.6c-1.7-1.8-3.3-4.1-4.2-6.5
		c-2.1-5.4-2.9-11-2.6-16.7c0.2-3.3,0-6.6-0.2-9.8c0-0.6-0.6-1.2-0.9-1.8c-0.6,0.5-1.5,0.8-1.7,1.4c-1.2,3.9-2.6,8-3.5,12.1
		c-1.2,5.6-1.8,11.1-1.1,16.9c0.5,2.9-0.9,4.1-3.3,3.2c-0.8-0.3-1.4-1.2-1.7-2s-0.3-1.7-0.3-2.4c-0.2-0.8-0.3-1.7-0.5-3.2
		c-2,3.9-3.5,7.7-7.2,9.5c-3.8,1.8-7.4,1.1-10.7-1.5c-0.8,2-1.2,3.8-2.1,5.4c-2.3,4.4-6.8,4.7-9.5,0.6c-1.5-2.3-2.3-5-3.2-7.5
		c-0.5-1.1-0.6-2.4-0.8-3.6c-0.3-3.5-0.6-7.1-0.9-10.5c1.2-0.2,2.3-0.3,3.5-0.5c0.2,0.9,0.3,1.8,0.3,2.7c0,5.3,0.3,10.5,2.3,15.5
		c0.9,2.3,1.8,5,4.8,4.7c3-0.2,3.2-3,3.9-5.3c0.6-1.7,0.5-3.3-0.5-5c-2.4-4.2-2.7-8.9-1.8-13.6C412.3,240,413.1,239.6,413.4,239z
		 M416.5,250.9c0.9-0.6,2.1-1.1,2.7-1.8c3.5-4.2,5.3-9.2,6.3-14.5c0-0.5,0.3-0.8,0.5-1.4c0.5,0.6,0.8,0.9,1.5,2
		c0.3-1.7,0.5-2.6,0.8-4.1c-1.2,0.5-1.7,0.6-2.3,0.9c-0.3-1.7-0.3-3.2-0.9-4.5c-0.6-1.8-2.1-2.1-3.3-0.8c-1.1,1.1-2,2.4-2.4,3.8
		c-2.4,5.6-2.7,11.5-2.3,17.5C417.3,248.6,416.8,249.4,416.5,250.9z"/>
	<path fill="#FFFFFF" d="M395.1,233.7c4.4-1.4,7.8-3.3,10.2-7.1c0.3,0,0.5,0.2,0.8,0.2c0.2,1.1,0.5,2.1,0.2,3
		c-0.9,3.2-1.8,6.5-2.9,9.8c-0.6,0-1.5,0-2.6,0c0,0.2,0,0.6,0.2,1.1c-0.2,0-0.3,0-0.5,0c0-1.5,0-3,0-4.7c-2,0.9-3.6,1.7-5.3,2.6
		c-0.6,0.3-0.9,1.2-1.1,2c-0.6,5.1-1.1,10.2-1.8,15.4c-0.3,2.1-1.2,4.2-2.3,6.2c-1.7,3.2-4.5,3.6-7.2,1.4c-1.5-1.2,0.8-2.1,3.5-1.7
		c1.7,0.3,3.9-1.4,4.4-4.5c1.1-5.9,1.5-11.8,2.1-17.6c0-0.6-0.6-1.2-0.9-1.7c-2.4-3.6-2.9-7.4-1.4-11.3c0.3-0.8,1.2-1.2,1.8-1.8
		c0.6,0.6,1.4,1.2,1.7,2C394.5,229,394.7,231.3,395.1,233.7z"/>
	<path fill="#FFFFFF" d="M488.7,248.8c-2,3.2-5.4,1.7-8.6-3.9c-0.3,0.6-0.9,1.1-0.9,1.5c-0.6,3.5-2.1,6-5.6,6.9
		c-2.9,0.8-6.3-1.1-8.3-4.2c-4.2-7.1-3.6-14.5-0.2-21.5c0.8-1.5,1.7-3,3-4.1c1.7-1.4,3.6-2.6,5.4-3.5c1.4-0.8,2.9-1.2,4.5-1.5
		c1.5-0.2,3,0,4.5,0.3c1.2,0.3,1.7,1.1,0.6,2.1s-4.1,1.5-5.3,0.6c-2-1.4-3.8-1.1-5.1,0.3c-1.4,1.4-2.6,2.9-3.2,4.7
		c-3,7.4-2.1,14.8,0.3,22c0.9,2.6,4.8,3,6,0.8c1.2-2.3,1.7-4.8,2.6-7.2c0.3-0.9,0.8-2,0.9-2.9c0.2-0.6-0.5-1.2-0.5-1.8
		c-0.3-3.8-0.6-7.5-0.9-11.5c-0.2-3,2.1-2.1,3.6-2.4c1.8-0.3,2.1,0.6,2.3,2.3c0.3,5.3,0.9,10.5,1.5,15.8c0.3,2.1,1.1,4.2,1.7,6.3
		C487.1,248.5,488,248.6,488.7,248.8z"/>
	<path fill="#FFFFFF" d="M373.6,239.9c-0.3,2.3-0.6,5-0.9,7.8c0,0.3-0.5,0.5-0.8,0.8c-1.4,0.8-1.5,1.5-0.2,2.6
		c0.6,0.5,0.9,1.4,1.1,2c0.8,2.6,1.1,5.3,2.1,7.7c0.6,1.2,2.3,2.6,3.5,2.6c1.1,0,2.6-1.5,3.2-2.7c2-3.8,2.3-8,2-12.2
		c-0.2-2.7-0.5-5.4-0.6-8c1.1-0.6,2.9-1.8,2.9-2.1c-0.8-0.3-1.7-0.8-2.4-1.1c0-0.2,0-0.3,0-0.6c1.5-0.2,2.7,21.1,2,19.9
		c-0.5,1.4-0.8,2.4-1.2,3.6c-1.5,3.9-4.1,6.2-7.1,5.4c-2-0.5-4.1-1.7-5.6-3c-1.5-1.5-3-3.3-2.6-6c0.2-0.6-0.9-1.5-1.1-2.3
		c-0.9-7.8,1.1-14.9,7.2-20.2c3.3-3,9,1.1,7.4-0.3c-1.8-1.5-4.7-0.2-6.6,2.7C375.1,237.5,374.5,238.4,373.6,239.9z"/>
	<path fill="#FFFFFF" d="M441.9,213.5c-3.3,0.6-6.6,1.2-9.9,2c-4.8,1.1-9.6,2.1-14.5,3.2c-5.1,1.1-10.2,1.8-15.2,3.2
		c-5.3,1.4-10.5,1.7-15.8,1.2c-2.4-0.3-4.8-1.1-7.2-1.8c-0.6-0.2-1.1-0.8-1.5-1.1c0.2-0.2,0.2-0.3,0.3-0.5c1.1,0.5,2.1,0.9,3.2,1.4
		c4.2,1.8,8.6,1.5,12.8,1.1c5.7-0.6,11.6-1.7,17.3-2.9c8.4-1.7,16.9-3.8,25.3-5.6c1.2-0.3,2.6-0.6,3.8-0.9c0.5-0.2,1.1,0,1.7,0.2
		C441.9,213,441.9,213.2,441.9,213.5z"/>
	<path fill="#FFFFFF" d="M505.1,217.3c-3.5-3.3-7.5-5.6-11.9-7.1c-6.3-2.3-12.8-1.5-19.1-1.2c-1.5,0-3.2-0.3-4.7-0.2
		c-1.8,0.3-3.6,0.9-5.6,1.2c-2.3,0.5-4.5,0.6-7.1,0.5c0.3-0.2,0.5-0.6,0.8-0.6c8.7-0.8,17.5-2,26.2-2.3c6.9-0.3,13.4,2.1,18.8,6.6
		C503.5,215.2,504.2,216.4,505.1,217.3z"/>
	<path fill="#FFFFFF" d="M373.5,210.6c-0.8-3,0.3-5.4,2.3-7.5c3.5-3.8,10.2-3.9,13.6-0.5c1.8,1.8,2.6,4.1,1.8,6.5
		c-0.3,1.1-1.5,1.8-2.6,2.6c2.1-1.5,2.4-3.5,1.7-5.7c-0.9-2.7-3.5-4.7-6.3-4.8c-3.3-0.3-8.7,2-9.9,7.2
		C373.8,209,373.6,209.9,373.5,210.6z"/>
	<path fill="#FFFFFF" d="M377.8,266.7c5.9-3.2,6.6-8.9,6.8-14.6c0-3-0.9-6-1.4-9c-0.5-2.7-1.1-4.8-4.8-4.8c-1.2,0-3-2.1-3.5-3.6
		c-0.3-1.1,1.1-3.5,2.1-3.6c1.4-0.3,3,0.9,4.7,1.4c-0.2,0.5-0.3,0.9-0.5,1.4c-0.6,0-1.2-0.2-1.7,0c-0.9,0.6-1.7,1.4-2.4,2
		c0.9,0.5,2,1.4,2.7,1.2c3.9-0.9,7.8-2.3,12.2-2.7c-2.6,1.4-5,2.6-7.8,4.1c0.6,3.5,1.8,7.2,1.5,10.7c-0.3,5-1.4,10.1-2.9,14.9
		C382.6,265.3,379.6,265.8,377.8,266.7C377.7,266.5,377.8,266.7,377.8,266.7z"/>
	<path fill="#FFFFFF" d="M443.1,212.1c4.2-0.8,8.4-1.4,13.1-2.1C454.1,212,445.3,213.2,443.1,212.1z"/>
	<path fill="#FFFFFF" d="M376.6,218.9c-2.4-1.7-3.2-4.2-3.3-6.9C374.4,214.3,375.6,216.7,376.6,218.9z"/>
	<path fill="none" d="M357.6,238.5c-2,2.3-3.9,4.4-6.5,7.2c-0.6-1.7-0.9-2.6-1.1-3.5c-1.1-8.7-0.8-17.3,3-25.5
		c1.5-3.2,3.6-5.1,5.9-4.8c2.4,0.3,4.4,2.7,4.8,6.2c0.8,6.2-1.5,11.6-4.2,17c-0.5,0.8-1.7,1.7-0.3,2.7c0.2,0-0.3,0.8-0.6,1.1
		C358.4,239,357.9,238.7,357.6,238.5z"/>
	<path fill="none" d="M343.3,276.6c0.8-0.3,1.5-0.8,2.3-1.1c0.8-0.3,1.5-0.9,2.3-0.9c2.7-0.2,3.9,0.3,2.9,3.2
		c-0.6,1.8-2,3.5-3.2,4.8c-1.4,1.4-3.3,1.2-4.8,0c-1.4-1.2-0.9-2.6-0.2-3.9C342.9,278.1,343,277.5,343.3,276.6z"/>
	<path fill="#FFFFFF" d="M375.9,314.8c-5.9,2.1-10.5,5.6-12.4,11.9c-2.3,8.6-0.3,16.3,5.4,23.1c0.9,1.1,1.8,2.3,2.9,3.3
		c2.4,2.6,5.7,3.2,8.9,4.1c6.5,1.8,11.5-1.2,15.7-5.9c3.5-3.9,5.3-8.7,6.2-13.9c0.2-1.1,0.6-2,1.1-3.2c-0.2-0.9-0.5-2-0.5-3
		c-0.2-1.7,0.2-3.5-0.2-5.1c-0.5-3.3,0.3-4.2,3.5-5.4c-1.1-1.4-2.6-0.5-3.8-0.6c-0.3,0-0.6,1.1-1.1,1.8c-4.2,0.5-8.7,0.9-13.3,1.4
		c0-0.2-0.2-0.3-0.2-0.6c2.7-0.8,5.4-1.4,8.1-2.1c0.9-0.3,2-0.6,2.9-0.8c2.6-0.2,2.9-1.7,2.3-3.8c-1.4-5.3-2.7-10.7-4.1-16
		c-0.3-1.4-0.6-2.7-0.9-4.5c1.7-0.3,3.5-0.8,5.3-1.1c0.5,0,1.4,0.8,1.5,1.2c0.5,3.2,0.6,6.3,1.1,9.5c0.5,2.6,1.2,5.1,1.7,7.7
		c0.3,1.5,0.6,3.2,0.9,5.1c2-0.5,3.9-0.8,5.7-1.4c2.1-0.8,2.7,0.6,3.2,2.3c0.5,2.1-1.4,1.7-2.3,2c-1.2,0.3-2.6,0.5-3.9,0.5
		c-1.5,0-2.6,0.3-2.4,1.8c-1.2,0.5-2.7,0.5-2.9,1.1c-0.5,1.7,0.9,1.2,1.8,1.1c0.3,0,0.8-0.2,1.4-0.5c0.6,7.4-1.1,14-4.4,20.6
		c-0.2-0.5-0.3-0.9-0.6-1.7c-0.5,0.9-1.1,1.7-0.9,2c1.1,1.4,0,2.1-0.6,3c-4.2,5.6-9.3,10.2-16.6,11.5c-2.4,0.5-4.8,0.9-7.4-0.9
		c-1.2-0.9-3.6-0.6-5.3-1.8c-6.5-4.4-9.8-10.5-10.8-18.1c-0.5-3-0.3-6.3,0.2-9.3c1.1-6.9,5.3-11.6,11.5-14.8
		c1.1-0.5,6.6-2.3,8.6-2.6c5.6-1.1,11.3-1.7,16.6,1.5c0.5,0.3,0.6,0.9,0.8,1.7c-6-2.7-12.1-3.2-18.2-1.7
		C378.3,314,376.5,314.5,375.9,314.8z"/>
	<path fill="#FFFFFF" d="M458.4,320.2c0.3-5.6-1.4-11-2-16.6c-0.3-2.1,0.5-2.6,3.6-2.7c1.8-0.2,2.9,0.3,2.6,2.4
		c-0.2,1.7-0.3,3.2-0.5,4.7c0.3,3.9,0.6,7.7,0.9,11.5c0.3,0,0.6,0,0.9,0c0.3-2.4,0.6-4.7,1.2-7.1c0.8-3.3,1.5-6.6,2.6-9.9
		c0.6-2,1.8-3.8,4.4-3.8c2.7,0,4.1,2,4.5,4.2c0.6,3,0.9,6,1.2,9c0.6,6.2,0.9,12.4,1.4,18.4c0,0.3,0,0.6,0.2,0.9
		c0.8,1.5,1.2,3.6,3.5,3.8c1.5,0,3.3-2.6,3.6-4.7c0.5-3.3,1.1-6.6,1.8-10.4c1.2,3.8-0.5,12.8-2.6,15.2c-1.8,2.3-4.5,2.7-6.5,0.6
		c-1.7-1.8-3.3-4.1-4.2-6.5c-2.1-5.4-2.9-11-2.6-16.7c0.2-3.3,0-6.6-0.2-9.8c0-0.6-0.6-1.2-0.9-1.8c-0.6,0.5-1.5,0.8-1.7,1.4
		c-1.2,3.9-2.6,8-3.5,12.1c-1.2,5.6-1.8,11.1-1.1,16.9c0.5,2.9-0.9,4.1-3.3,3.2c-0.8-0.3-1.4-1.2-1.7-2c-0.3-0.8-0.3-1.7-0.3-2.4
		c-0.2-0.8-0.3-1.7-0.5-3.2C453.9,346.7,457.5,332.5,458.4,320.2z"/>
	<path fill="#FFFFFF" d="M499.4,322.4c-0.6,3.5-2.1,6-5.6,6.9c-2.9,0.8-6.3-1.1-8.3-4.2c-4.2-7.1-3.6-14.5-0.2-21.5
		c0.8-1.5,1.7-3,3-4.1c1.7-1.4,3.6-2.6,5.4-3.5c1.4-0.8,2.9-1.2,4.5-1.5c1.5-0.2,3,0,4.5,0.3c1.2,0.3,1.7,1.1,0.6,2.1
		c-1.1,1.1-4.1,1.5-5.3,0.6c-2-1.4-3.8-1.1-5.1,0.3c-1.4,1.4-2.6,2.9-3.2,4.7c-3,7.4-2.1,14.8,0.3,22c0.9,2.6,4.8,3,6,0.8
		c1.2-2.3,2.9-4.2,3.6-6.6c0.3-0.9,2.1-2,2.3-3C502.1,315.4,499.6,321.8,499.4,322.4z"/>
	<path fill="#FFFFFF" d="M456.5,336.5c-2,3.2-5.4,1.7-8.6-3.9c-0.3,0.6-0.9,1.1-0.9,1.5c-0.6,3.5-2.1,6-5.6,6.9
		c-2.9,0.8-6.3-1.1-8.3-4.2c-4.2-7.1-3.6-14.5-0.2-21.5c0.8-1.5,1.7-3,3-4.1c1.7-1.4,3.6-2.6,5.4-3.5c1.4-0.8,2.9-1.2,4.5-1.5
		c1.5-0.2,3,0,4.5,0.3c1.2,0.3,1.7,1.1,0.6,2.1c-1.1,1.1-4.1,1.5-5.3,0.6c-2-1.4-3.8-1.1-5.1,0.3c-1.4,1.4-2.6,2.9-3.2,4.7
		c-3,7.4-2.1,14.8,0.3,22c0.9,2.6,4.8,3,6,0.8s1.7-4.8,2.6-7.2c0.3-0.9,0.8-2,0.9-2.9c0.2-0.6-0.5-1.2-0.5-1.8
		c-0.3-3.8-0.6-7.5-0.9-11.5c-0.2-3,2.1-2.1,3.6-2.4c1.8-0.3,2.1,0.6,2.3,2.3c0.3,5.3,0.9,10.5,1.5,15.8c0.3,2.1,1.1,4.2,1.7,6.3
		C454.8,336.2,455.7,336.3,456.5,336.5z"/>
	<path fill="#FFFFFF" d="M435.8,339.8c0,2.3-4.8,8.3-7.4,7.7c-2.4-0.6-3.9-2.3-4.7-4.4c-1.2-3.2-2.4-6.5-2.7-9.8
		c-0.6-5.3-0.8-10.5-1.1-15.7c-1.4,0.6-3,1.4-4.5,2.1c-0.5,0.3-2.4,0.8-3.9-1.5c-2.1-3.2-2.4-6.9-0.6-10.5c0.3-0.6,1.1-1.1,1.5-1.5
		c0.6,0.6,1.4,1.1,1.7,1.7c0.6,2.3,0.9,4.5,1.5,7.1c4.2-1.1,7.7-3.2,9.9-6.9c0.3,0,0.5,0,0.8,0c0,1.1,0.5,2.3,0.2,3.2
		c-3.6,9.3-3.2,18.7-1.1,28c0.3,1.5,1.1,3,2,4.4c1.7,2.6,3.5,2.7,5.9,0.8L435.8,339.8z"/>
	<path fill="#FFFFFF" d="M427.1,357.5c0.3-0.5,0.8-1.4,1.1-1.4c7.4-1.1,14.6-2,22-2.9c1.1-0.2,2.1,0.8,3.2,0.9
		c0.6,0.2,1.4-0.5,1.8-0.3c2.7,1.4,5.9,2.4,8.1,4.4c1.7,1.5,2.3,4.1,3.3,6.2c-0.3,0.2-0.6,0.3-0.9,0.5c-0.8-1.4-1.5-2.7-2-4.2
		c-0.9-2.7-3.2-3.8-5.4-4.7c-4.8-1.8-9.9-2-15.1-1.4c-5,0.6-9.8,1.2-14.8,2C428,356.9,427.5,357.4,427.1,357.5L427.1,357.5z"/>
	<path fill="#FFFFFF" d="M356.7,352.9c2.9,3,5.3,6.6,8.7,9c3.3,2.4,7.5,3.5,10.7,4.8c2.3,0,4.1,0,6.2,0c-2,1.5-5.3,1.4-11.3-0.6
		C364.3,364,359.1,359.8,356.7,352.9z"/>
	<path fill="#FFFFFF" d="M447.3,367.9c0.2,0.5,0.3,0.6,0.3,0.6c-0.5,3.3,0.5,6,3.6,7.7c2.7,1.5,7.5,0.9,9.8-1.5
		c1.7-2,2.7-4.4,4.1-6.6c0.3-0.5,0.3-1.1,0.5-1.7c0.3,0,0.5,0.2,0.8,0.2c-0.2,1.2-0.3,2.6-0.6,3.6c-2.1,6.2-9.8,9.8-15.8,6.5
		C446.7,375.2,445.6,371.6,447.3,367.9z"/>
	<path fill="#FFFFFF" d="M507.1,302.1c-0.3,2.3-0.6,5-0.9,7.8c0,0.3-0.5,0.5-0.8,0.8c-1.4,0.8-1.5,1.5-0.2,2.6
		c0.6,0.5,0.9,1.4,1.1,2c0.8,2.6,1.1,5.3,2.1,7.7c0.6,1.2,2.3,2.6,3.5,2.6c1.1,0,2.6-1.5,3.2-2.7c2-3.8,2.3-8,2-12.2
		c-0.2-2.7-0.5-5.4-0.6-8c1.1-0.6,2.9-1.8,2.9-2.1c-0.8-0.3-1.7-0.8-2.4-1.1c0-0.2,0-0.3,0-0.6c1.5-0.2,2.7,21.1,2,19.9
		c-0.5,1.4-0.8,2.4-1.2,3.6c-1.5,3.9-4.1,6.2-7.1,5.4c-2-0.5-4.1-1.7-5.6-3c-1.5-1.5-3-3.3-2.6-6c0.2-0.6-0.9-1.5-1.1-2.3
		c-0.9-7.8,1.1-14.9,7.2-20.2c3.3-3,9,1.1,7.4-0.3c-1.8-1.5-4.7-0.2-6.6,2.7C508.6,299.7,508,300.7,507.1,302.1z"/>
	<path fill="#FFFFFF" d="M511.3,328c5.9-3.2,6.6-8.9,6.8-14.6c0-3-0.9-6-1.4-9c-0.5-2.7-1.1-4.8-4.8-4.8c-1.2,0-3-2.1-3.5-3.6
		c-0.3-1.1,1.1-3.5,2.1-3.6c1.4-0.3,3,0.9,4.7,1.4c-0.2,0.5-0.3,0.9-0.5,1.4c-0.6,0-1.2-0.2-1.7,0c-0.9,0.6-1.7,1.4-2.4,2
		c0.9,0.5,2,1.4,2.7,1.2c3.9-0.9,7.8-2.3,12.2-2.7c-2.6,1.4-5,2.6-7.8,4.1c0.6,3.5,1.8,7.2,1.5,10.7c-0.3,5-1.4,10.1-2.9,14.9
		C516.1,326.8,513.1,327.1,511.3,328C511.2,328,511.3,328,511.3,328z"/>
	<path fill="#FFFFFF" d="M411.4,355.3c1.1,1.1,1.7,11.3,0.9,14C411,368.5,410.2,359.2,411.4,355.3z"/>
	<path fill="#FFFFFF" d="M386.7,366.7c2.7-0.9,5.4-1.8,8.3-2.6c2.7-0.8,5.4-1.2,8.1-1.7C399.5,364.6,388.1,367.5,386.7,366.7z"/>
	<path fill="#FFFFFF" d="M427.1,357.5c-2.1,0.6-4.1,1.2-6.2,2c0-0.2-0.2-0.3-0.2-0.6C422.7,358,424.7,356.6,427.1,357.5L427.1,357.5
		z"/>
</g>
</svg>
