<?xml version="1.0" encoding="utf-8"?>
<!-- Generator: Adobe Illustrator 18.1.0, SVG Export Plug-In . SVG Version: 6.00 Build 0)  -->
<!DOCTYPE svg PUBLIC "-//W3C//DTD SVG 1.1//EN" "http://www.w3.org/Graphics/SVG/1.1/DTD/svg11.dtd">
<svg version="1.1" id="Layer_1" xmlns="http://www.w3.org/2000/svg" xmlns:xlink="http://www.w3.org/1999/xlink" x="0px" y="0px"
	 viewBox="0 0 960 560" enable-background="new 0 0 960 560" xml:space="preserve">
<path fill="#2AA9E0" d="M628.4,517.5H235.9c-22.6,0-41-18.3-41-41V43h474.5v433.5C669.4,499.1,651.1,517.5,628.4,517.5z"/>
<path fill="#FFFFFF" d="M526.8,231.5c0.1,2.1,0.1,4.2,0.1,6.3c0,64.5-49.1,138.9-138.9,138.9c-27.6,0-53.2-8.1-74.9-21.9
	c3.8,0.5,7.7,0.7,11.7,0.7c22.9,0,43.9-7.8,60.6-20.9c-21.4-0.4-39.4-14.5-45.6-33.9c3,0.6,6,0.9,9.2,0.9c4.5,0,8.8-0.6,12.9-1.7
	c-22.3-4.5-39.2-24.2-39.2-47.9c0-0.2,0-0.4,0-0.6c6.6,3.7,14.1,5.9,22.1,6.1c-13.1-8.7-21.7-23.7-21.7-40.6
	c0-8.9,2.4-17.3,6.6-24.6c24.1,29.5,60.1,49,100.6,51c-0.8-3.6-1.3-7.3-1.3-11.1c0-27,21.9-48.8,48.8-48.8c14,0,26.7,5.9,35.6,15.4
	c11.1-2.2,21.6-6.2,31-11.8c-3.7,11.4-11.4,21-21.5,27c9.9-1.2,19.3-3.8,28-7.7C544.6,216,536.3,224.6,526.8,231.5z"/>
<g>
</g>
<g>
</g>
<g>
</g>
<g>
</g>
<g>
</g>
<g>
</g>
<g>
</g>
<g>
</g>
<g>
</g>
<g>
</g>
<g>
</g>
<g>
</g>
<g>
</g>
<g>
</g>
<g>
</g>
</svg>
