<?xml version="1.0" encoding="utf-8"?>
<!-- Generator: Adobe Illustrator 18.1.0, SVG Export Plug-In . SVG Version: 6.00 Build 0)  -->
<!DOCTYPE svg PUBLIC "-//W3C//DTD SVG 1.1//EN" "http://www.w3.org/Graphics/SVG/1.1/DTD/svg11.dtd">
<svg version="1.1" id="Layer_1" xmlns="http://www.w3.org/2000/svg" xmlns:xlink="http://www.w3.org/1999/xlink" x="0px" y="0px"
	 viewBox="0 0 612 792" enable-background="new 0 0 612 792" xml:space="preserve">
<path fill="#FFFFFF" d="M365,355.8c0.1,1.9,0.1,3.8,0.1,5.7c0,58.5-44.5,126-126,126c-25,0-48.2-7.4-67.9-19.8
	c3.4,0.5,7,0.6,10.6,0.6c20.8,0,39.8-7.1,55-19c-19.4-0.4-35.7-13.2-41.3-30.7c2.7,0.6,5.5,0.8,8.3,0.8c4,0,8-0.6,11.8-1.5
	c-20.2-4-35.5-22-35.5-43.4c0-0.2,0-0.4,0-0.6c5.9,3.3,12.8,5.3,20.1,5.6c-11.9-7.8-19.7-21.5-19.7-36.8c0-8.1,2.1-15.7,5.9-22.3
	c21.8,26.7,54.5,44.4,91.2,46.2c-0.7-3.2-1.2-6.6-1.2-10.1c0-24.5,19.8-44.3,44.3-44.3c12.7,0,24.2,5.3,32.3,14
	c10.1-2,19.6-5.6,28.1-10.7c-3.3,10.3-10.3,19-19.5,24.5c9-1.1,17.5-3.4,25.4-7C381.2,341.8,373.6,349.5,365,355.8z"/>
</svg>
