<?xml version="1.0" encoding="utf-8"?>
<!-- Generator: Adobe Illustrator 18.1.0, SVG Export Plug-In . SVG Version: 6.00 Build 0)  -->
<!DOCTYPE svg PUBLIC "-//W3C//DTD SVG 1.1//EN" "http://www.w3.org/Graphics/SVG/1.1/DTD/svg11.dtd">
<svg version="1.1" id="Layer_1" xmlns="http://www.w3.org/2000/svg" xmlns:xlink="http://www.w3.org/1999/xlink" x="0px" y="0px"
	 viewBox="0 0 612 792" enable-background="new 0 0 612 792" xml:space="preserve">
<path fill="none" stroke="#FFFFFF" stroke-width="30" stroke-miterlimit="10" d="M404.2,551H154c-14.4,0-26.1-11.7-26.1-26.1V248.5
	h302.5v276.4C430.3,539.3,418.6,551,404.2,551z"/>
<path fill="#FFFFFF" d="M351.5,362.7c0.1,1.6,0.1,3.2,0.1,4.8c0,49.3-37.5,106.1-106.1,106.1c-21.1,0-40.6-6.2-57.2-16.7
	c2.9,0.4,5.9,0.5,8.9,0.5c17.5,0,33.5-6,46.3-16c-16.3-0.3-30.1-11.1-34.8-25.9c2.3,0.5,4.6,0.7,7,0.7c3.4,0,6.7-0.5,9.9-1.3
	c-17-3.4-29.9-18.5-29.9-36.6c0-0.2,0-0.3,0-0.5c5,2.8,10.8,4.5,16.9,4.7c-10-6.6-16.6-18.1-16.6-31c0-6.8,1.8-13.2,5-18.8
	c18.4,22.5,45.9,37.4,76.8,38.9c-0.6-2.7-1-5.6-1-8.5c0-20.6,16.7-37.3,37.3-37.3c10.7,0,20.4,4.5,27.2,11.8
	c8.5-1.7,16.5-4.7,23.7-9c-2.8,8.7-8.7,16-16.4,20.6c7.6-0.9,14.7-2.9,21.4-5.9C365.1,350.9,358.7,357.4,351.5,362.7z"/>
</svg>
